<?xml version="1.0" encoding="UTF-8" standalone="no"?><svg xmlns="http://www.w3.org/2000/svg" xmlns:xlink="http://www.w3.org/1999/xlink" contentScriptType="application/ecmascript" contentStyleType="text/css" height="323px" preserveAspectRatio="none" style="width:900px;height:323px;" version="1.1" viewBox="0 0 900 323" width="900px" zoomAndPan="magnify"><defs><filter height="300%" id="f1vdetpo4qnpo8" width="300%" x="-1" y="-1"><feGaussianBlur result="blurOut" stdDeviation="2.0"/><feColorMatrix in="blurOut" result="blurOut2" type="matrix" values="0 0 0 0 0 0 0 0 0 0 0 0 0 0 0 0 0 0 .4 0"/><feOffset dx="4.0" dy="4.0" in="blurOut2" result="blurOut3"/><feBlend in="SourceGraphic" in2="blurOut3" mode="normal"/></filter></defs><g><!--cluster alarm--><rect fill="#FEFECE" filter="url(#f1vdetpo4qnpo8)" height="296" rx="12.5" ry="12.5" style="stroke: #A80036; stroke-width: 1.5;" width="874" x="14" y="16"/><rect fill="#FFFFFF" height="263.5117" rx="12.5" ry="12.5" style="stroke: #FFFFFF; stroke-width: 1.0;" width="868" x="17" y="45.4883"/><line style="stroke: #A80036; stroke-width: 1.5;" x1="14" x2="888" y1="42.4883" y2="42.4883"/><text fill="#000000" font-family="sans-serif" font-size="14" lengthAdjust="spacingAndGlyphs" textLength="39" x="431.5" y="33.5352">alarm</text><!--cluster alarm.active--><rect fill="#FEFECE" filter="url(#f1vdetpo4qnpo8)" height="261" rx="12.5" ry="12.5" style="stroke: #A80036; stroke-width: 1.5;" width="476" x="404" y="43"/><rect fill="#FFFFFF" height="228.5117" rx="12.5" ry="12.5" style="stroke: #FFFFFF; stroke-width: 1.0;" width="470" x="407" y="72.4883"/><line style="stroke: #A80036; stroke-width: 1.5;" x1="404" x2="880" y1="69.4883" y2="69.4883"/><text fill="#000000" font-family="sans-serif" font-size="14" lengthAdjust="spacingAndGlyphs" textLength="39" x="622.5" y="60.5352">active</text><ellipse cx="32" cy="188" fill="#000000" filter="url(#f1vdetpo4qnpo8)" rx="10" ry="10" style="stroke: none; stroke-width: 1.0;"/><rect fill="#FEFECE" filter="url(#f1vdetpo4qnpo8)" height="50" rx="12.5" ry="12.5" style="stroke: #A80036; stroke-width: 1.5;" width="72" x="165" y="163"/><line style="stroke: #A80036; stroke-width: 1.5;" x1="165" x2="237" y1="189.4883" y2="189.4883"/><text fill="#000000" font-family="sans-serif" font-size="14" lengthAdjust="spacingAndGlyphs" textLength="52" x="175" y="181.5352">inactive</text><rect fill="#FEFECE" filter="url(#f1vdetpo4qnpo8)" height="50" rx="12.5" ry="12.5" style="stroke: #A80036; stroke-width: 1.5;" width="84" x="412" y="149"/><line style="stroke: #A80036; stroke-width: 1.5;" x1="412" x2="496" y1="175.4883" y2="175.4883"/><text fill="#000000" font-family="sans-serif" font-size="14" lengthAdjust="spacingAndGlyphs" textLength="64" x="422" y="167.5352">snoozing</text><rect fill="#FEFECE" filter="url(#f1vdetpo4qnpo8)" height="50" rx="12.5" ry="12.5" style="stroke: #A80036; stroke-width: 1.5;" width="70" x="419" y="235"/><line style="stroke: #A80036; stroke-width: 1.5;" x1="419" x2="489" y1="261.4883" y2="261.4883"/><text fill="#000000" font-family="sans-serif" font-size="14" lengthAdjust="spacingAndGlyphs" textLength="50" x="429" y="253.5352">waiting</text><rect fill="#FEFECE" filter="url(#f1vdetpo4qnpo8)" height="50" rx="12.5" ry="12.5" style="stroke: #A80036; stroke-width: 1.5;" width="76" x="796" y="149"/><line style="stroke: #A80036; stroke-width: 1.5;" x1="796" x2="872" y1="175.4883" y2="175.4883"/><text fill="#000000" font-family="sans-serif" font-size="14" lengthAdjust="spacingAndGlyphs" textLength="56" x="806" y="167.5352">beeping</text><!--link *start*alarm to alarm.inactive--><path d="M42.0656,188 C64.7117,188 120.743,188 159.8247,188 " fill="none" id="*start*alarm-alarm.inactive" style="stroke: #A80036; stroke-width: 1.0;"/><polygon fill="#A80036" points="164.9817,188,155.9817,184,159.9817,188,155.9817,192,164.9817,188" style="stroke: #A80036; stroke-width: 1.0;"/><!--link alarm.inactive to alarm.active.waiting--><path d="M237.2487,198.3158 C284.0113,211.6238 365.1068,234.7023 413.741,248.5429 " fill="none" id="alarm.inactive-alarm.active.waiting" style="stroke: #A80036; stroke-width: 1.0;"/><polygon fill="#A80036" points="418.6342,249.9354,411.073,243.6245,413.8252,248.5667,408.883,251.3189,418.6342,249.9354" style="stroke: #A80036; stroke-width: 1.0;"/><text fill="#000000" font-family="sans-serif" font-size="13" lengthAdjust="spacingAndGlyphs" textLength="47" x="301" y="212.5684">ENABLE</text><!--link alarm.active to alarm.inactive--><path d="M403.8806,128.6594 C403.59,128.7444 403.2985,128.8297 403.0062,128.9152 C402.4216,129.0862 401.8335,129.2582 401.2422,129.4311 C391.7809,132.1985 381.474,135.2131 370.6913,138.367 C327.5606,150.9823 276.8172,165.8243 242.1301,175.9699 " fill="none" id="alarm.active-alarm.inactive" style="stroke: #A80036; stroke-width: 1.0;"/><polygon fill="#A80036" points="237.2487,177.3976,247.0097,178.71,242.0476,175.9939,244.7638,171.0318,237.2487,177.3976" style="stroke: #A80036; stroke-width: 1.0;"/><text fill="#000000" font-family="sans-serif" font-size="13" lengthAdjust="spacingAndGlyphs" textLength="51" x="299" y="141.5684">DISABLE</text><!--link alarm.active.snoozing to alarm.active.beeping--><path d="M496.2996,174 C515.0488,174 537.375,174 557.5,174 C557.5,174 557.5,174 734.5,174 C752.8162,174 773.0289,174 790.425,174 " fill="none" id="alarm.active.snoozing-alarm.active.beeping" style="stroke: #A80036; stroke-width: 1.0;"/><polygon fill="#A80036" points="795.7282,174,786.7282,170,790.7282,174,786.7282,178,795.7282,174" style="stroke: #A80036; stroke-width: 1.0;"/><text fill="#000000" font-family="sans-serif" font-size="13" lengthAdjust="spacingAndGlyphs" textLength="38" x="627" y="170.5684">TIMER</text><!--link alarm.active.beeping to alarm.active.snoozing--><path d="M819.5728,148.836 C802.7516,123.1416 772.3616,87 734.5,87 C557.5,87 557.5,87 557.5,87 C548.271,87 511.3215,119.8327 484.1928,145.1587 " fill="none" id="alarm.active.beeping-alarm.active.snoozing" style="stroke: #A80036; stroke-width: 1.0;"/><polygon fill="#A80036" points="480.266,148.836,489.5694,145.6038,483.9156,145.4183,484.101,139.7645,480.266,148.836" style="stroke: #A80036; stroke-width: 1.0;"/><text fill="#000000" font-family="sans-serif" font-size="13" lengthAdjust="spacingAndGlyphs" textLength="52" x="620" y="83.5684">SNOOZE</text><!--link alarm.active.waiting to alarm.active.beeping--><path d="M489.4467,260.5117 C509.4318,260.7578 534.8583,261 557.5,261 C557.5,261 557.5,261 734.5,261 C770.291,261 799.4053,228.7033 816.6923,203.4656 " fill="none" id="alarm.active.waiting-alarm.active.beeping" style="stroke: #A80036; stroke-width: 1.0;"/><polygon fill="#A80036" points="819.5728,199.164,811.2415,204.4166,816.7908,203.3186,817.8889,208.8678,819.5728,199.164" style="stroke: #A80036; stroke-width: 1.0;"/><text fill="#000000" font-family="sans-serif" font-size="13" lengthAdjust="spacingAndGlyphs" textLength="38" x="627" y="257.5684">TIMER</text><!--
@startuml
left to right direction
state "alarm" as alarm {
  [*] - -> alarm.inactive

  state "inactive" as alarm.inactive {
    alarm.inactive - -> alarm.active.waiting : ENABLE
  }

  state "active" as alarm.active {
    alarm.active - -> alarm.inactive : DISABLE
    state "snoozing" as alarm.active.snoozing {
      alarm.active.snoozing - -> alarm.active.beeping : TIMER
    }

    state "waiting" as alarm.active.waiting {
      alarm.active.waiting - -> alarm.active.beeping : TIMER
    }

    state "beeping" as alarm.active.beeping {
      alarm.active.beeping - -> alarm.active.snoozing : SNOOZE
    }
  }
}
@enduml

PlantUML version 1.2018.09(Fri Jul 27 18:58:18 CEST 2018)
(GPL source distribution)
Java Runtime: Java(TM) SE Runtime Environment
JVM: Java HotSpot(TM) 64-Bit Server VM
Java Version: 1.8.0_91-b14
Operating System: Mac OS X
OS Version: 10.13.1
Default Encoding: UTF-8
Language: en
Country: US
--></g></svg>