<?xml version="1.0" encoding="UTF-8" standalone="no"?><svg xmlns="http://www.w3.org/2000/svg" xmlns:xlink="http://www.w3.org/1999/xlink" contentScriptType="application/ecmascript" contentStyleType="text/css" height="343px" preserveAspectRatio="none" style="width:659px;height:343px;" version="1.1" viewBox="0 0 659 343" width="659px" zoomAndPan="magnify"><defs><filter height="300%" id="f1vdetpo4qnpo8" width="300%" x="-1" y="-1"><feGaussianBlur result="blurOut" stdDeviation="2.0"/><feColorMatrix in="blurOut" result="blurOut2" type="matrix" values="0 0 0 0 0 0 0 0 0 0 0 0 0 0 0 0 0 0 .4 0"/><feOffset dx="4.0" dy="4.0" in="blurOut2" result="blurOut3"/><feBlend in="SourceGraphic" in2="blurOut3" mode="normal"/></filter></defs><g><!--MD5=[e343c27c995878613a3e4a371f0b40aa]
cluster alarm--><rect fill="#FEFECE" filter="url(#f1vdetpo4qnpo8)" height="324" rx="12.5" ry="12.5" style="stroke: #A80036; stroke-width: 1.5;" width="640" x="7" y="7"/><rect fill="#FFFFFF" height="291.7031" rx="12.5" ry="12.5" style="stroke: #FFFFFF; stroke-width: 1.0;" width="634" x="10" y="36.2969"/><line style="stroke: #A80036; stroke-width: 1.5;" x1="7" x2="647" y1="33.2969" y2="33.2969"/><text fill="#000000" font-family="sans-serif" font-size="14" lengthAdjust="spacingAndGlyphs" textLength="37" x="308.5" y="23.9951">alarm</text><!--MD5=[0b0490303223c048fd4e37e7418b7aa4]
cluster alarm.active--><rect fill="#FEFECE" filter="url(#f1vdetpo4qnpo8)" height="241" rx="12.5" ry="12.5" style="stroke: #A80036; stroke-width: 1.5;" width="328" x="287" y="58"/><rect fill="#FFFFFF" height="208.7031" rx="12.5" ry="12.5" style="stroke: #FFFFFF; stroke-width: 1.0;" width="322" x="290" y="87.2969"/><line style="stroke: #A80036; stroke-width: 1.5;" x1="287" x2="615" y1="84.2969" y2="84.2969"/><text fill="#000000" font-family="sans-serif" font-size="14" lengthAdjust="spacingAndGlyphs" textLength="40" x="431" y="74.9951">active</text><ellipse cx="33" cy="162" fill="#000000" filter="url(#f1vdetpo4qnpo8)" rx="10" ry="10" style="stroke: none; stroke-width: 1.0;"/><g id="alarm.alarm.inactive"><rect fill="#FEFECE" filter="url(#f1vdetpo4qnpo8)" height="50" rx="12.5" ry="12.5" style="stroke: #A80036; stroke-width: 1.5;" width="72" x="104" y="137"/><line style="stroke: #A80036; stroke-width: 1.5;" x1="104" x2="176" y1="163.2969" y2="163.2969"/><text fill="#000000" font-family="sans-serif" font-size="14" lengthAdjust="spacingAndGlyphs" textLength="52" x="114" y="154.9951">inactive</text></g><g id="alarm.active.snoozing"><rect fill="#FEFECE" filter="url(#f1vdetpo4qnpo8)" height="50" rx="12.5" ry="12.5" style="stroke: #A80036; stroke-width: 1.5;" width="84" x="311" y="123"/><line style="stroke: #A80036; stroke-width: 1.5;" x1="311" x2="395" y1="149.2969" y2="149.2969"/><text fill="#000000" font-family="sans-serif" font-size="14" lengthAdjust="spacingAndGlyphs" textLength="64" x="321" y="140.9951">snoozing</text></g><g id="alarm.inactive.alarm.active.waiting"><rect fill="#FEFECE" filter="url(#f1vdetpo4qnpo8)" height="50" rx="12.5" ry="12.5" style="stroke: #A80036; stroke-width: 1.5;" width="68" x="319" y="213"/><line style="stroke: #A80036; stroke-width: 1.5;" x1="319" x2="387" y1="239.2969" y2="239.2969"/><text fill="#000000" font-family="sans-serif" font-size="14" lengthAdjust="spacingAndGlyphs" textLength="48" x="329" y="230.9951">waiting</text></g><g id="alarm.active.snoozing.alarm.active.beeping"><rect fill="#FEFECE" filter="url(#f1vdetpo4qnpo8)" height="50" rx="12.5" ry="12.5" style="stroke: #A80036; stroke-width: 1.5;" width="77" x="514" y="158"/><line style="stroke: #A80036; stroke-width: 1.5;" x1="514" x2="591" y1="184.2969" y2="184.2969"/><text fill="#000000" font-family="sans-serif" font-size="14" lengthAdjust="spacingAndGlyphs" textLength="57" x="524" y="175.9951">beeping</text></g><!--MD5=[8aeb445b81804d382085565dbc2c05ce]
link *start*alarm to alarm.inactive--><path d="M43.32,162 C55.72,162 78.43,162 98.62,162 " fill="none" id="*start*alarm-to-alarm.inactive" style="stroke: #A80036; stroke-width: 1.0;"/><polygon fill="#A80036" points="103.69,162,94.7015,157.9743,98.69,161.9857,94.6786,165.9743,103.69,162" style="stroke: #A80036; stroke-width: 1.0;"/><!--MD5=[895de352b2e2859b5afd8d6764536e2d]
link alarm.inactive to alarm.active.waiting--><path d="M176.32,174.72 C214.27,188.39 274.39,210.05 313.52,224.14 " fill="none" id="alarm.inactive-to-alarm.active.waiting" style="stroke: #A80036; stroke-width: 1.0;"/><polygon fill="#A80036" points="318.66,225.99,311.5572,219.1673,313.9581,224.2893,308.8361,226.6903,318.66,225.99" style="stroke: #A80036; stroke-width: 1.0;"/><text fill="#000000" font-family="sans-serif" font-size="13" lengthAdjust="spacingAndGlyphs" textLength="51" x="209" y="183.0669">ENABLE</text><!--MD5=[da4bb793bf7f1ae5a89c3ded398a84c1]
link alarm.active to alarm.inactive--><path d="M286.9133,89.1647 C286.7739,89.1911 286.6346,89.2177 286.4953,89.2444 C286.2167,89.2978 285.9384,89.3519 285.6602,89.4066 C285.1039,89.5159 284.5485,89.6277 283.9942,89.7421 C279.5595,90.6569 275.1938,91.7338 271,93 C238.88,102.7 205.5,120.6 180.61,135.75 " fill="none" id="alarm.active-to-alarm.inactive" style="stroke: #A80036; stroke-width: 1.0;"/><polygon fill="#A80036" points="176.06,138.54,185.8225,137.2389,180.3207,135.9235,181.6361,130.4217,176.06,138.54" style="stroke: #A80036; stroke-width: 1.0;"/><text fill="#000000" font-family="sans-serif" font-size="13" lengthAdjust="spacingAndGlyphs" textLength="55" x="207" y="93.0669">DISABLE</text><!--MD5=[3fbd5a65b90ad69be4a89a12a624960b]
link alarm.active.snoozing to alarm.active.beeping--><path d="M392.78,173.13 C402.87,178.43 414.02,183.25 425,186 C452.25,192.83 483.85,192.09 508.65,189.64 " fill="none" id="alarm.active.snoozing-to-alarm.active.beeping" style="stroke: #A80036; stroke-width: 1.0;"/><polygon fill="#A80036" points="513.83,189.09,504.4575,186.064,508.858,189.6186,505.3033,194.0191,513.83,189.09" style="stroke: #A80036; stroke-width: 1.0;"/><text fill="#000000" font-family="sans-serif" font-size="13" lengthAdjust="spacingAndGlyphs" textLength="37" x="436" y="182.0669">TIMER</text><!--MD5=[90b7c928ac36f15a0c9b076249aa5b46]
link alarm.active.beeping to alarm.active.snoozing--><path d="M513.86,172.03 C504.19,169.47 493.76,166.93 484,165 C456.48,159.56 425.33,155.41 400.43,152.58 " fill="none" id="alarm.active.beeping-to-alarm.active.snoozing" style="stroke: #A80036; stroke-width: 1.0;"/><polygon fill="#A80036" points="395.21,152,403.7069,156.9802,400.1787,152.5584,404.6004,149.0302,395.21,152" style="stroke: #A80036; stroke-width: 1.0;"/><text fill="#000000" font-family="sans-serif" font-size="13" lengthAdjust="spacingAndGlyphs" textLength="57" x="426" y="152.0669">SNOOZE</text><!--MD5=[8be024226bdad7ba2e2806cb1a3ace7f]
link alarm.active.waiting to alarm.active.beeping--><path d="M387.25,235.46 C413.91,232.75 452.03,227.36 484,217 C492.43,214.27 501.1,210.62 509.31,206.71 " fill="none" id="alarm.active.waiting-to-alarm.active.beeping" style="stroke: #A80036; stroke-width: 1.0;"/><polygon fill="#A80036" points="513.82,204.53,503.9772,204.8764,509.3252,206.7201,507.4815,212.0681,513.82,204.53" style="stroke: #A80036; stroke-width: 1.0;"/><text fill="#000000" font-family="sans-serif" font-size="13" lengthAdjust="spacingAndGlyphs" textLength="37" x="436" y="213.0669">TIMER</text></g></svg>