<?xml version="1.0" encoding="UTF-8" standalone="no"?><svg xmlns="http://www.w3.org/2000/svg" xmlns:xlink="http://www.w3.org/1999/xlink" contentScriptType="application/ecmascript" contentStyleType="text/css" height="169px" preserveAspectRatio="none" style="width:834px;height:169px;" version="1.1" viewBox="0 0 834 169" width="834px" zoomAndPan="magnify"><defs><filter height="300%" id="fbx4968vz2epw" width="300%" x="-1" y="-1"><feGaussianBlur result="blurOut" stdDeviation="2.0"/><feColorMatrix in="blurOut" result="blurOut2" type="matrix" values="0 0 0 0 0 0 0 0 0 0 0 0 0 0 0 0 0 0 .4 0"/><feOffset dx="4.0" dy="4.0" in="blurOut2" result="blurOut3"/><feBlend in="SourceGraphic" in2="blurOut3" mode="normal"/></filter></defs><g><rect fill="#FEFECE" filter="url(#fbx4968vz2epw)" height="150.5625" rx="12.5" ry="12.5" style="stroke: #A80036; stroke-width: 1.5;" width="815" x="7" y="7"/><rect fill="#FFFFFF" height="118.2656" rx="12.5" ry="12.5" style="stroke: #FFFFFF; stroke-width: 1.0;" width="809" x="10" y="36.2969"/><line style="stroke: #A80036; stroke-width: 1.5;" x1="7" x2="822" y1="33.2969" y2="33.2969"/><text fill="#000000" font-family="sans-serif" font-size="14" lengthAdjust="spacingAndGlyphs" textLength="67" x="381" y="24.9951">download</text><ellipse cx="28" cy="97.2969" fill="#000000" filter="url(#fbx4968vz2epw)" rx="10" ry="10" style="stroke: none; stroke-width: 1.0;"/><g id="download.download.idle"><rect fill="#FEFECE" filter="url(#fbx4968vz2epw)" height="50" rx="12.5" ry="12.5" style="stroke: #A80036; stroke-width: 1.5;" width="50" x="75" y="72.2969"/><line style="stroke: #A80036; stroke-width: 1.5;" x1="75" x2="125" y1="98.5938" y2="98.5938"/><text fill="#000000" font-family="sans-serif" font-size="14" lengthAdjust="spacingAndGlyphs" textLength="24" x="88" y="90.292">idle</text></g><g id="download.idle.download.downloading"><rect fill="#FEFECE" filter="url(#fbx4968vz2epw)" height="50.2656" rx="12.5" ry="12.5" style="stroke: #A80036; stroke-width: 1.5;" width="123" x="284" y="72.2969"/><line style="stroke: #A80036; stroke-width: 1.5;" x1="284" x2="407" y1="98.5938" y2="98.5938"/><text fill="#000000" font-family="sans-serif" font-size="14" lengthAdjust="spacingAndGlyphs" textLength="88" x="301.5" y="90.292">downloading</text><text fill="#000000" font-family="sans-serif" font-size="12" lengthAdjust="spacingAndGlyphs" textLength="103" x="289" y="114.7324">do/streamChunk</text></g><g id="download.downloading.download.paused"><rect fill="#FEFECE" filter="url(#fbx4968vz2epw)" height="50" rx="12.5" ry="12.5" style="stroke: #A80036; stroke-width: 1.5;" width="72" x="499" y="45.2969"/><line style="stroke: #A80036; stroke-width: 1.5;" x1="499" x2="571" y1="71.5938" y2="71.5938"/><text fill="#000000" font-family="sans-serif" font-size="14" lengthAdjust="spacingAndGlyphs" textLength="52" x="509" y="63.292">paused</text></g><g id="download.downloading.download.finished"><rect fill="#FEFECE" filter="url(#fbx4968vz2epw)" height="50.2656" rx="12.5" ry="12.5" style="stroke: #A80036; stroke-width: 1.5;" width="145" x="661" y="89.2969"/><line style="stroke: #A80036; stroke-width: 1.5;" x1="661" x2="806" y1="115.5938" y2="115.5938"/><text fill="#000000" font-family="sans-serif" font-size="14" lengthAdjust="spacingAndGlyphs" textLength="54" x="706.5" y="107.292">finished</text><text fill="#000000" font-family="sans-serif" font-size="12" lengthAdjust="spacingAndGlyphs" textLength="125" x="666" y="131.7324">onEntry/cleanCache</text></g><!--MD5=[b7e5edbbb0c655def6d62a0ca86dcbaa]
link *start*download to download.idle--><path d="M38.15,97.2969 C46.19,97.2969 58.33,97.2969 69.65,97.2969 " fill="none" id="*start*download-to-download.idle" style="stroke: #A80036; stroke-width: 1.0;"/><polygon fill="#A80036" points="74.78,97.2969,65.78,93.2969,69.78,97.2969,65.78,101.2969,74.78,97.2969" style="stroke: #A80036; stroke-width: 1.0;"/><!--MD5=[e6f5b8425dbcbbfbee18defd47ce576b]
link download.idle to download.downloading--><path d="M125.24,97.2969 C160.71,97.2969 228.05,97.2969 278.79,97.2969 " fill="none" id="download.idle-to-download.downloading" style="stroke: #A80036; stroke-width: 1.0;"/><polygon fill="#A80036" points="283.95,97.2969,274.95,93.2969,278.95,97.2969,274.95,101.2969,283.95,97.2969" style="stroke: #A80036; stroke-width: 1.0;"/><text fill="#000000" font-family="sans-serif" font-size="13" lengthAdjust="spacingAndGlyphs" textLength="40" x="144" y="63.3638">START</text><text fill="#000000" font-family="sans-serif" font-size="13" lengthAdjust="spacingAndGlyphs" textLength="121" x="144" y="78.4966">[stableConnection]</text><text fill="#000000" font-family="sans-serif" font-size="13" lengthAdjust="spacingAndGlyphs" textLength="95" x="144" y="93.6294">/initializeCache</text><!--MD5=[006f8294726baf3620ac69e4c9fe422a]
link download.downloading to download.paused--><path d="M407.19,82.4769 C413.18,81.2869 419.2,80.1969 425,79.2969 C447.66,75.7869 473.2,73.5769 493.85,72.2369 " fill="none" id="download.downloading-to-download.paused" style="stroke: #A80036; stroke-width: 1.0;"/><polygon fill="#A80036" points="499,71.9069,489.7668,68.4794,494.0098,72.2205,490.2687,76.4636,499,71.9069" style="stroke: #A80036; stroke-width: 1.0;"/><text fill="#000000" font-family="sans-serif" font-size="13" lengthAdjust="spacingAndGlyphs" textLength="44" x="431" y="70.3638">PAUSE</text><!--MD5=[fcd4708ff9d44eb2f8a800d492a37d8a]
link download.downloading to download.finished--><path d="M407.31,108.4069 C413.28,109.4169 419.26,110.3969 425,111.2969 C457.79,116.4369 465.89,119.0669 499,121.2969 C551.21,124.8069 610.11,123.0069 655.69,120.3469 " fill="none" id="download.downloading-to-download.finished" style="stroke: #A80036; stroke-width: 1.0;"/><polygon fill="#A80036" points="660.9,120.0369,651.676,116.5847,655.909,120.3372,652.1565,124.5702,660.9,120.0369" style="stroke: #A80036; stroke-width: 1.0;"/><text fill="#000000" font-family="sans-serif" font-size="13" lengthAdjust="spacingAndGlyphs" textLength="38" x="516" y="117.3638">DONE</text><!--MD5=[17a25e17fdef10d3d71aa4d01854c0d0]
link download.paused to download.downloading--><path d="M498.86,93.4269 C493.1,96.2569 487.03,98.7069 481,100.2969 C459.15,106.0569 434.61,107.0269 412.52,106.0169 " fill="none" id="download.paused-to-download.downloading" style="stroke: #A80036; stroke-width: 1.0;"/><polygon fill="#A80036" points="407.26,105.7369,416.0292,110.2202,412.2526,106.0087,416.4641,102.232,407.26,105.7369" style="stroke: #A80036; stroke-width: 1.0;"/><text fill="#000000" font-family="sans-serif" font-size="13" lengthAdjust="spacingAndGlyphs" textLength="54" x="426" y="96.3638">RESUME</text><!--MD5=[8c9d8d477ffbb6558a410fa2dfe03bdc]
link download.paused to download.finished--><path d="M571.13,78.1669 C594.61,83.4169 626.43,90.5469 655.61,97.0769 " fill="none" id="download.paused-to-download.finished" style="stroke: #A80036; stroke-width: 1.0;"/><polygon fill="#A80036" points="660.64,98.2069,652.7384,92.3277,655.7621,97.1086,650.9812,100.1324,660.64,98.2069" style="stroke: #A80036; stroke-width: 1.0;"/><text fill="#000000" font-family="sans-serif" font-size="13" lengthAdjust="spacingAndGlyphs" textLength="52" x="590" y="80.3638">CANCEL</text></g></svg>