<?xml version="1.0" encoding="UTF-8" standalone="no"?><svg xmlns="http://www.w3.org/2000/svg" xmlns:xlink="http://www.w3.org/1999/xlink" contentScriptType="application/ecmascript" contentStyleType="text/css" height="171px" preserveAspectRatio="none" style="width:882px;height:171px;" version="1.1" viewBox="0 0 882 171" width="882px" zoomAndPan="magnify"><defs><filter height="300%" id="f1trzfwv8ulmoy" width="300%" x="-1" y="-1"><feGaussianBlur result="blurOut" stdDeviation="2.0"/><feColorMatrix in="blurOut" result="blurOut2" type="matrix" values="0 0 0 0 0 0 0 0 0 0 0 0 0 0 0 0 0 0 .4 0"/><feOffset dx="4.0" dy="4.0" in="blurOut2" result="blurOut3"/><feBlend in="SourceGraphic" in2="blurOut3" mode="normal"/></filter></defs><g><rect fill="#FEFECE" filter="url(#f1trzfwv8ulmoy)" height="152.4883" rx="12.5" ry="12.5" style="stroke: #A80036; stroke-width: 1.5;" width="864" x="6" y="8"/><rect fill="#FFFFFF" height="120" rx="12.5" ry="12.5" style="stroke: #FFFFFF; stroke-width: 1.0;" width="858" x="9" y="37.4883"/><line style="stroke: #A80036; stroke-width: 1.5;" x1="6" x2="870" y1="34.4883" y2="34.4883"/><text fill="#000000" font-family="sans-serif" font-size="14" lengthAdjust="spacingAndGlyphs" textLength="68" x="404" y="26.5352">download</text><ellipse cx="27" cy="102.9883" fill="#000000" filter="url(#f1trzfwv8ulmoy)" rx="10" ry="10" style="stroke: none; stroke-width: 1.0;"/><rect fill="#FEFECE" filter="url(#f1trzfwv8ulmoy)" height="50" rx="12.5" ry="12.5" style="stroke: #A80036; stroke-width: 1.5;" width="50" x="74" y="77.9883"/><line style="stroke: #A80036; stroke-width: 1.5;" x1="74" x2="124" y1="104.4766" y2="104.4766"/><text fill="#000000" font-family="sans-serif" font-size="14" lengthAdjust="spacingAndGlyphs" textLength="25" x="86.5" y="96.5234">idle</text><rect fill="#FEFECE" filter="url(#f1trzfwv8ulmoy)" height="50" rx="12.5" ry="12.5" style="stroke: #A80036; stroke-width: 1.5;" width="110" x="280" y="77.9883"/><line style="stroke: #A80036; stroke-width: 1.5;" x1="280" x2="390" y1="104.4766" y2="104.4766"/><text fill="#000000" font-family="sans-serif" font-size="14" lengthAdjust="spacingAndGlyphs" textLength="90" x="290" y="96.5234">downloading</text><rect fill="#FEFECE" filter="url(#f1trzfwv8ulmoy)" height="50" rx="12.5" ry="12.5" style="stroke: #A80036; stroke-width: 1.5;" width="70" x="544" y="50.9883"/><line style="stroke: #A80036; stroke-width: 1.5;" x1="544" x2="614" y1="77.4766" y2="77.4766"/><text fill="#000000" font-family="sans-serif" font-size="14" lengthAdjust="spacingAndGlyphs" textLength="50" x="554" y="69.5234">paused</text><rect fill="#FEFECE" filter="url(#f1trzfwv8ulmoy)" height="50.6211" rx="12.5" ry="12.5" style="stroke: #A80036; stroke-width: 1.5;" width="134" x="703" y="94.4883"/><line style="stroke: #A80036; stroke-width: 1.5;" x1="703" x2="837" y1="120.9766" y2="120.9766"/><text fill="#000000" font-family="sans-serif" font-size="14" lengthAdjust="spacingAndGlyphs" textLength="55" x="742.5" y="113.0234">finished</text><text fill="#000000" font-family="sans-serif" font-size="12" lengthAdjust="spacingAndGlyphs" textLength="114" x="708" y="137.5781">onEntry/cleanCache</text><!--link *start*download to download.idle--><path d="M37.0113,102.9883 C45.2543,102.9883 57.3897,102.9883 68.7429,102.9883 " fill="none" id="*start*download-download.idle" style="stroke: #A80036; stroke-width: 1.0;"/><polygon fill="#A80036" points="73.8874,102.9883,64.8874,98.9883,68.8874,102.9883,64.8874,106.9883,73.8874,102.9883" style="stroke: #A80036; stroke-width: 1.0;"/><!--link download.idle to download.downloading--><path d="M124.2561,102.9883 C159.8221,102.9883 225.7545,102.9883 274.4366,102.9883 " fill="none" id="download.idle-download.downloading" style="stroke: #A80036; stroke-width: 1.0;"/><polygon fill="#A80036" points="279.6871,102.9883,270.6871,98.9883,274.6871,102.9883,270.6871,106.9883,279.6871,102.9883" style="stroke: #A80036; stroke-width: 1.0;"/><text fill="#000000" font-family="sans-serif" font-size="13" lengthAdjust="spacingAndGlyphs" textLength="40" x="143" y="69.5566">START</text><text fill="#000000" font-family="sans-serif" font-size="13" lengthAdjust="spacingAndGlyphs" textLength="118" x="143" y="84.8672">[stableConnection]</text><text fill="#000000" font-family="sans-serif" font-size="13" lengthAdjust="spacingAndGlyphs" textLength="99" x="143" y="100.1777">/startDownload</text><!--link download.downloading to download.paused--><path d="M382.7057,77.9877 C390.942,74.6775 399.5704,71.8051 408,69.9883 C452.0076,60.5034 503.8373,64.3509 538.8059,69.0696 " fill="none" id="download.downloading-download.paused" style="stroke: #A80036; stroke-width: 1.0;"/><polygon fill="#A80036" points="543.84,69.7707,535.4778,64.5674,538.8878,69.081,534.3743,72.4909,543.84,69.7707" style="stroke: #A80036; stroke-width: 1.0;"/><text fill="#000000" font-family="sans-serif" font-size="13" lengthAdjust="spacingAndGlyphs" textLength="39" x="447.5" y="61.5566">PAUSE</text><!--link download.downloading to download.finished--><path d="M390.2391,116.0508 C396.2105,117.177 402.2164,118.1894 408,118.9883 C507.7074,132.7608 624.3414,129.6923 697.6988,125.4641 " fill="none" id="download.downloading-download.finished" style="stroke: #A80036; stroke-width: 1.0;"/><polygon fill="#A80036" points="702.9049,125.1579,693.6856,121.6932,697.9135,125.4514,694.1553,129.6794,702.9049,125.1579" style="stroke: #A80036; stroke-width: 1.0;"/><text fill="#000000" font-family="sans-serif" font-size="13" lengthAdjust="spacingAndGlyphs" textLength="37" x="560.5" y="125.5566">DONE</text><!--link download.paused to download.downloading--><path d="M543.8647,99.1197 C538.0995,101.9495 532.0324,104.3994 526,105.9883 C483.338,117.2248 433.4391,115.9734 395.3441,112.1784 " fill="none" id="download.paused-download.downloading" style="stroke: #A80036; stroke-width: 1.0;"/><polygon fill="#A80036" points="390.2861,111.6527,398.8244,116.5616,395.2593,112.1695,399.6514,108.6044,390.2861,111.6527" style="stroke: #A80036; stroke-width: 1.0;"/><text fill="#000000" font-family="sans-serif" font-size="13" lengthAdjust="spacingAndGlyphs" textLength="49" x="409" y="87.5566">RESUME</text><text fill="#000000" font-family="sans-serif" font-size="13" lengthAdjust="spacingAndGlyphs" textLength="116" x="409" y="102.8672">/resumeDownload</text><!--link download.paused to download.finished--><path d="M614.0323,84.0586 C637.4477,89.4527 669.1018,96.7447 697.7751,103.3501 " fill="none" id="download.paused-download.finished" style="stroke: #A80036; stroke-width: 1.0;"/><polygon fill="#A80036" points="702.7193,104.4891,694.8471,98.5706,697.8469,103.3665,693.051,106.3664,702.7193,104.4891" style="stroke: #A80036; stroke-width: 1.0;"/><text fill="#000000" font-family="sans-serif" font-size="13" lengthAdjust="spacingAndGlyphs" textLength="51" x="633" y="86.5566">CANCEL</text><!--
@startuml
left to right direction
state "download" as download {
  [*] - -> download.idle

  state "idle" as download.idle {
    download.idle - -> download.downloading : START\l[stableConnection]\l/startDownload
  }

  state "downloading" as download.downloading {
    download.downloading - -> download.paused : PAUSE
    download.downloading - -> download.finished : DONE
  }

  state "paused" as download.paused {
    download.paused - -> download.downloading : RESUME\l/resumeDownload
    download.paused - -> download.finished : CANCEL
  }

  state "finished" as download.finished {
    download.finished : onEntry/cleanCache
  }
}
@enduml

PlantUML version 1.2018.09(Fri Jul 27 18:58:18 CEST 2018)
(GPL source distribution)
Java Runtime: Java(TM) SE Runtime Environment
JVM: Java HotSpot(TM) 64-Bit Server VM
Java Version: 1.8.0_91-b14
Operating System: Mac OS X
OS Version: 10.13.1
Default Encoding: UTF-8
Language: en
Country: US
--></g></svg>