<?xml version="1.0" encoding="UTF-8" standalone="no"?><svg xmlns="http://www.w3.org/2000/svg" xmlns:xlink="http://www.w3.org/1999/xlink" contentScriptType="application/ecmascript" contentStyleType="text/css" height="325px" preserveAspectRatio="none" style="width:245px;height:325px;" version="1.1" viewBox="0 0 245 325" width="245px" zoomAndPan="magnify"><defs><filter height="300%" id="f1kyq33nvwm8o0" width="300%" x="-1" y="-1"><feGaussianBlur result="blurOut" stdDeviation="2.0"/><feColorMatrix in="blurOut" result="blurOut2" type="matrix" values="0 0 0 0 0 0 0 0 0 0 0 0 0 0 0 0 0 0 .4 0"/><feOffset dx="4.0" dy="4.0" in="blurOut2" result="blurOut3"/><feBlend in="SourceGraphic" in2="blurOut3" mode="normal"/></filter></defs><g><!--cluster internal--><rect fill="#FEFECE" filter="url(#f1kyq33nvwm8o0)" height="298" rx="12.5" ry="12.5" style="stroke: #A80036; stroke-width: 1.5;" width="219" x="14" y="16"/><rect fill="#FFFFFF" height="265.5117" rx="12.5" ry="12.5" style="stroke: #FFFFFF; stroke-width: 1.0;" width="213" x="17" y="45.4883"/><line style="stroke: #A80036; stroke-width: 1.5;" x1="14" x2="233" y1="42.4883" y2="42.4883"/><text fill="#000000" font-family="sans-serif" font-size="14" lengthAdjust="spacingAndGlyphs" textLength="53" x="97" y="33.5352">internal</text><ellipse cx="32" cy="296" fill="#000000" filter="url(#f1kyq33nvwm8o0)" rx="10" ry="10" style="stroke: none; stroke-width: 1.0;"/><rect fill="#FEFECE" filter="url(#f1kyq33nvwm8o0)" height="50" rx="12.5" ry="12.5" style="stroke: #A80036; stroke-width: 1.5;" width="50" x="175" y="234"/><line style="stroke: #A80036; stroke-width: 1.5;" x1="175" x2="225" y1="260.4883" y2="260.4883"/><text fill="#000000" font-family="sans-serif" font-size="14" lengthAdjust="spacingAndGlyphs" textLength="8" x="196" y="252.5352">a</text><rect fill="#FEFECE" filter="url(#f1kyq33nvwm8o0)" height="50" rx="12.5" ry="12.5" style="stroke: #A80036; stroke-width: 1.5;" width="50" x="175" y="128"/><line style="stroke: #A80036; stroke-width: 1.5;" x1="175" x2="225" y1="154.4883" y2="154.4883"/><text fill="#000000" font-family="sans-serif" font-size="14" lengthAdjust="spacingAndGlyphs" textLength="9" x="195.5" y="146.5352">b</text><rect fill="#FEFECE" filter="url(#f1kyq33nvwm8o0)" height="50" rx="12.5" ry="12.5" style="stroke: #A80036; stroke-width: 1.5;" width="50" x="175" y="43"/><line style="stroke: #A80036; stroke-width: 1.5;" x1="175" x2="225" y1="69.4883" y2="69.4883"/><text fill="#000000" font-family="sans-serif" font-size="14" lengthAdjust="spacingAndGlyphs" textLength="7" x="196.5" y="61.5352">c</text><!--link *start*internal to internal.a--><path d="M42.0061,293.7963 C66.6815,288.3618 131.2294,274.1459 169.7572,265.6606 " fill="none" id="*start*internal-internal.a" style="stroke: #A80036; stroke-width: 1.0;"/><polygon fill="#A80036" points="174.7834,264.5537,165.1337,262.5831,169.9004,265.6291,166.8544,270.3958,174.7834,264.5537" style="stroke: #A80036; stroke-width: 1.0;"/><!--link internal to internal.a--><path d="M32.4819,147.3213 C39.6228,152.0819 124.3858,208.5905 170.5199,239.3466 " fill="none" id="internal-internal.a" style="stroke: #A80036; stroke-width: 1.0;"/><polygon fill="#A80036" points="174.8601,242.24,169.5905,233.9195,170.6999,239.4665,165.1529,240.5758,174.8601,242.24" style="stroke: #A80036; stroke-width: 1.0;"/><text fill="#000000" font-family="sans-serif" font-size="13" lengthAdjust="spacingAndGlyphs" textLength="9" x="104" y="191.5684">A</text><!--link internal to internal.b--><path d="M32.4819,147.0172 C39.5796,147.2707 123.3633,150.263 169.6786,151.9171 " fill="none" id="internal-internal.b" style="stroke: #A80036; stroke-width: 1.0;"/><polygon fill="#A80036" points="174.8601,152.1021,166.0087,147.7832,169.8633,151.9235,165.723,155.7781,174.8601,152.1021" style="stroke: #A80036; stroke-width: 1.0;"/><text fill="#000000" font-family="sans-serif" font-size="13" lengthAdjust="spacingAndGlyphs" textLength="7" x="105" y="146.5684">B</text><!--link internal to internal.c--><path d="M32.4819,146.7734 C39.6084,143.4222 124.0443,103.7173 170.2404,81.9941 " fill="none" id="internal-internal.c" style="stroke: #A80036; stroke-width: 1.0;"/><polygon fill="#A80036" points="174.8601,79.8218,165.0135,80.0322,170.3355,81.9496,168.418,87.2716,174.8601,79.8218" style="stroke: #A80036; stroke-width: 1.0;"/><text fill="#000000" font-family="sans-serif" font-size="13" lengthAdjust="spacingAndGlyphs" textLength="9" x="104" y="105.5684">C</text><!--
@startuml
left to right direction
state "internal" as internal {
  [*] - -> internal.a

  internal - -> internal.a : A
  internal - -> internal.b : B
  internal - -> internal.c : C
  state "a" as internal.a {
  }

  state "b" as internal.b {
  }

  state "c" as internal.c {
  }
}
@enduml

PlantUML version 1.2018.09(Fri Jul 27 18:58:18 CEST 2018)
(GPL source distribution)
Java Runtime: Java(TM) SE Runtime Environment
JVM: Java HotSpot(TM) 64-Bit Server VM
Java Version: 1.8.0_91-b14
Operating System: Mac OS X
OS Version: 10.13.1
Default Encoding: UTF-8
Language: en
Country: US
--></g></svg>