<?xml version="1.0" encoding="UTF-8" standalone="no"?><svg xmlns="http://www.w3.org/2000/svg" xmlns:xlink="http://www.w3.org/1999/xlink" contentScriptType="application/ecmascript" contentStyleType="text/css" height="347px" preserveAspectRatio="none" style="width:283px;height:347px;" version="1.1" viewBox="0 0 283 347" width="283px" zoomAndPan="magnify"><defs><filter height="300%" id="f1kyq33nvwm8o0" width="300%" x="-1" y="-1"><feGaussianBlur result="blurOut" stdDeviation="2.0"/><feColorMatrix in="blurOut" result="blurOut2" type="matrix" values="0 0 0 0 0 0 0 0 0 0 0 0 0 0 0 0 0 0 .4 0"/><feOffset dx="4.0" dy="4.0" in="blurOut2" result="blurOut3"/><feBlend in="SourceGraphic" in2="blurOut3" mode="normal"/></filter></defs><g><!--MD5=[c27d767109b3913d4718b358a17ad24a]
cluster internal--><rect fill="#FEFECE" filter="url(#f1kyq33nvwm8o0)" height="328" rx="12.5" ry="12.5" style="stroke: #A80036; stroke-width: 1.5;" width="264.72" x="7" y="7"/><rect fill="#FFFFFF" height="295.7031" rx="12.5" ry="12.5" style="stroke: #FFFFFF; stroke-width: 1.0;" width="258.72" x="10" y="36.2969"/><line style="stroke: #A80036; stroke-width: 1.5;" x1="7" x2="271.72" y1="33.2969" y2="33.2969"/><text fill="#000000" font-family="sans-serif" font-size="14" lengthAdjust="spacingAndGlyphs" textLength="51" x="113.86" y="23.9951">internal</text><ellipse cx="111.72" cy="60" fill="#000000" filter="url(#f1kyq33nvwm8o0)" rx="10" ry="10" style="stroke: none; stroke-width: 1.0;"/><g id="internal.internal.a"><rect fill="#FEFECE" filter="url(#f1kyq33nvwm8o0)" height="50" rx="12.5" ry="12.5" style="stroke: #A80036; stroke-width: 1.5;" width="50" x="197.72" y="120"/><line style="stroke: #A80036; stroke-width: 1.5;" x1="197.72" x2="247.72" y1="146.2969" y2="146.2969"/><text fill="#000000" font-family="sans-serif" font-size="14" lengthAdjust="spacingAndGlyphs" textLength="8" x="218.72" y="137.9951">a</text></g><g id="internal.internal.b"><rect fill="#FEFECE" filter="url(#f1kyq33nvwm8o0)" height="50" rx="12.5" ry="12.5" style="stroke: #A80036; stroke-width: 1.5;" width="50" x="86.72" y="190"/><line style="stroke: #A80036; stroke-width: 1.5;" x1="86.72" x2="136.72" y1="216.2969" y2="216.2969"/><text fill="#000000" font-family="sans-serif" font-size="14" lengthAdjust="spacingAndGlyphs" textLength="9" x="107.22" y="207.9951">b</text></g><g id="internal.internal.c"><rect fill="#FEFECE" filter="url(#f1kyq33nvwm8o0)" height="50" rx="12.5" ry="12.5" style="stroke: #A80036; stroke-width: 1.5;" width="50" x="86.72" y="105"/><line style="stroke: #A80036; stroke-width: 1.5;" x1="86.72" x2="136.72" y1="131.2969" y2="131.2969"/><text fill="#000000" font-family="sans-serif" font-size="14" lengthAdjust="spacingAndGlyphs" textLength="8" x="107.72" y="122.9951">c</text></g><!--MD5=[75d93140160e430a5bcbadc190616d85]
link *start*internal to internal.a--><path d="M120.21,65.84 C135.03,77.4 168.79,103.72 193.31,122.85 " fill="none" id="*start*internal-to-internal.a" style="stroke: #A80036; stroke-width: 1.0;"/><polygon fill="#A80036" points="197.47,126.09,192.8477,117.3932,193.5325,123.0085,187.9172,123.6932,197.47,126.09" style="stroke: #A80036; stroke-width: 1.0;"/><!--MD5=[d7cc16650a040984992670327faaa2f0]
link internal to internal.a--><path d="M15.78,215.13 C17.11,217.76 38.87,260.15 70.72,274 C97.62,285.7 110.89,287.91 136.72,274 C175.38,253.17 199.36,206.21 211.62,175.07 " fill="none" id="internal-to-internal.a" style="stroke: #A80036; stroke-width: 1.0;"/><polygon fill="#A80036" points="213.49,170.22,206.5401,177.1985,211.7047,174.8904,214.0127,180.055,213.49,170.22" style="stroke: #A80036; stroke-width: 1.0;"/><text fill="#000000" font-family="sans-serif" font-size="13" lengthAdjust="spacingAndGlyphs" textLength="9" x="107.22" y="270.0669">A</text><!--MD5=[48f1428c571932bf9f44038a44dbd5cf]
link internal to internal.b--><path d="M15.79,215 C17.58,215 53.93,215 81.12,215 " fill="none" id="internal-to-internal.b" style="stroke: #A80036; stroke-width: 1.0;"/><polygon fill="#A80036" points="86.42,215,77.42,211,81.42,215,77.42,219,86.42,215" style="stroke: #A80036; stroke-width: 1.0;"/><text fill="#000000" font-family="sans-serif" font-size="13" lengthAdjust="spacingAndGlyphs" textLength="9" x="46.72" y="211.0669">B</text><!--MD5=[512b58427ab1b3a7e191f1cb27b91b5e]
link internal to internal.c--><path d="M15.79,214.94 C17.61,213.31 55.16,179.72 82.47,155.27 " fill="none" id="internal-to-internal.c" style="stroke: #A80036; stroke-width: 1.0;"/><polygon fill="#A80036" points="86.42,151.74,77.0487,154.7696,82.6972,155.0777,82.3891,160.7262,86.42,151.74" style="stroke: #A80036; stroke-width: 1.0;"/><text fill="#000000" font-family="sans-serif" font-size="13" lengthAdjust="spacingAndGlyphs" textLength="9" x="46.72" y="177.0669">C</text></g></svg>