<?xml version="1.0" encoding="UTF-8" standalone="no"?><svg xmlns="http://www.w3.org/2000/svg" xmlns:xlink="http://www.w3.org/1999/xlink" contentScriptType="application/ecmascript" contentStyleType="text/css" height="219px" preserveAspectRatio="none" style="width:363px;height:219px;" version="1.1" viewBox="0 0 363 219" width="363px" zoomAndPan="magnify"><defs><filter height="300%" id="fgrnbn0ri7jv4" width="300%" x="-1" y="-1"><feGaussianBlur result="blurOut" stdDeviation="2.0"/><feColorMatrix in="blurOut" result="blurOut2" type="matrix" values="0 0 0 0 0 0 0 0 0 0 0 0 0 0 0 0 0 0 .4 0"/><feOffset dx="4.0" dy="4.0" in="blurOut2" result="blurOut3"/><feBlend in="SourceGraphic" in2="blurOut3" mode="normal"/></filter></defs><g><rect fill="#FEFECE" filter="url(#fgrnbn0ri7jv4)" height="200.4883" rx="12.5" ry="12.5" style="stroke: #A80036; stroke-width: 1.5;" width="345" x="6" y="8"/><rect fill="#FFFFFF" height="168" rx="12.5" ry="12.5" style="stroke: #FFFFFF; stroke-width: 1.0;" width="339" x="9" y="37.4883"/><line style="stroke: #A80036; stroke-width: 1.5;" x1="6" x2="351" y1="34.4883" y2="34.4883"/><text fill="#000000" font-family="sans-serif" font-size="14" lengthAdjust="spacingAndGlyphs" textLength="53" x="152" y="26.5352">internal</text><ellipse cx="27" cy="168.4883" fill="#000000" filter="url(#fgrnbn0ri7jv4)" rx="10" ry="10" style="stroke: none; stroke-width: 1.0;"/><rect fill="#FEFECE" filter="url(#fgrnbn0ri7jv4)" height="50" rx="12.5" ry="12.5" style="stroke: #A80036; stroke-width: 1.5;" width="50" x="74" y="143.4883"/><line style="stroke: #A80036; stroke-width: 1.5;" x1="74" x2="124" y1="169.9766" y2="169.9766"/><text fill="#000000" font-family="sans-serif" font-size="14" lengthAdjust="spacingAndGlyphs" textLength="8" x="95" y="162.0234">a</text><rect fill="#FEFECE" filter="url(#fgrnbn0ri7jv4)" height="50" rx="12.5" ry="12.5" style="stroke: #A80036; stroke-width: 1.5;" width="50" x="171" y="92.4883"/><line style="stroke: #A80036; stroke-width: 1.5;" x1="171" x2="221" y1="118.9766" y2="118.9766"/><text fill="#000000" font-family="sans-serif" font-size="14" lengthAdjust="spacingAndGlyphs" textLength="9" x="191.5" y="111.0234">b</text><rect fill="#FEFECE" filter="url(#fgrnbn0ri7jv4)" height="50" rx="12.5" ry="12.5" style="stroke: #A80036; stroke-width: 1.5;" width="50" x="268" y="143.4883"/><line style="stroke: #A80036; stroke-width: 1.5;" x1="268" x2="318" y1="169.9766" y2="169.9766"/><text fill="#000000" font-family="sans-serif" font-size="14" lengthAdjust="spacingAndGlyphs" textLength="7" x="289.5" y="162.0234">c</text><!--link *start*internal to internal.a--><path d="M37.0113,168.4883 C45.2543,168.4883 57.3897,168.4883 68.7429,168.4883 " fill="none" id="*start*internal-internal.a" style="stroke: #A80036; stroke-width: 1.0;"/><polygon fill="#A80036" points="73.8874,168.4883,64.8874,164.4883,68.8874,168.4883,64.8874,172.4883,73.8874,168.4883" style="stroke: #A80036; stroke-width: 1.0;"/><!--link internal.a to internal.a--><path d="M91.1558,143.3127 C90.8071,133.5788 93.4219,125.4883 99,125.4883 C103.5322,125.4883 106.1082,130.8293 106.7278,138.0532 " fill="none" id="internal.a-internal.a" style="stroke: #A80036; stroke-width: 1.0;"/><polygon fill="#A80036" points="106.8442,143.3127,110.6437,134.2262,106.7333,138.3139,102.6456,134.4036,106.8442,143.3127" style="stroke: #A80036; stroke-width: 1.0;"/><text fill="#000000" font-family="sans-serif" font-size="13" lengthAdjust="spacingAndGlyphs" textLength="9" x="94.5" y="117.0566">A</text><!--link internal.a to internal.b--><path d="M124.2101,145.2501 C129.7879,140.907 135.8708,136.7232 142,133.4883 C149.376,129.5954 157.8316,126.5204 165.8286,124.1505 " fill="none" id="internal.a-internal.b" style="stroke: #A80036; stroke-width: 1.0;"/><polygon fill="#A80036" points="170.7348,122.7649,160.9864,121.3616,165.923,124.1239,163.1608,129.0605,170.7348,122.7649" style="stroke: #A80036; stroke-width: 1.0;"/><text fill="#000000" font-family="sans-serif" font-size="13" lengthAdjust="spacingAndGlyphs" textLength="7" x="144" y="126.0566">B</text><!--link internal.a to internal.c--><path d="M124.3621,168.4883 C159.8971,168.4883 224.4132,168.4883 262.5157,168.4883 " fill="none" id="internal.a-internal.c" style="stroke: #A80036; stroke-width: 1.0;"/><polygon fill="#A80036" points="267.9391,168.4883,258.9391,164.4883,262.9391,168.4883,258.9391,172.4883,267.9391,168.4883" style="stroke: #A80036; stroke-width: 1.0;"/><text fill="#000000" font-family="sans-serif" font-size="13" lengthAdjust="spacingAndGlyphs" textLength="9" x="191.5" y="165.0566">C</text><!--link internal.b to internal.a--><path d="M170.5603,142.6399 C165.091,147.0772 159.1082,151.2919 153,154.4883 C145.6096,158.3556 137.0799,161.2054 129.0141,163.2845 " fill="none" id="internal.b-internal.a" style="stroke: #A80036; stroke-width: 1.0;"/><polygon fill="#A80036" points="124.0663,164.4817,133.7546,166.253,128.9261,163.3058,131.8732,158.4774,124.0663,164.4817" style="stroke: #A80036; stroke-width: 1.0;"/><text fill="#000000" font-family="sans-serif" font-size="13" lengthAdjust="spacingAndGlyphs" textLength="9" x="143" y="151.0566">A</text><!--link internal.b to internal.b--><path d="M187.0352,92.3127 C186.6367,82.5788 189.625,74.4883 196,74.4883 C201.1797,74.4883 204.1236,79.8293 204.8318,87.0532 " fill="none" id="internal.b-internal.b" style="stroke: #A80036; stroke-width: 1.0;"/><polygon fill="#A80036" points="204.9648,92.3127,208.7357,83.2143,204.8382,87.3143,200.7383,83.4168,204.9648,92.3127" style="stroke: #A80036; stroke-width: 1.0;"/><text fill="#000000" font-family="sans-serif" font-size="13" lengthAdjust="spacingAndGlyphs" textLength="7" x="192.5" y="66.0566">B</text><!--link internal.b to internal.c--><path d="M221.2652,122.7649 C230.612,125.2792 241.0932,128.7875 250,133.4883 C254.6927,135.965 259.3582,138.9979 263.7907,142.2327 " fill="none" id="internal.b-internal.c" style="stroke: #A80036; stroke-width: 1.0;"/><polygon fill="#A80036" points="267.7899,145.2501,263.0147,136.6363,263.7986,142.2386,258.1963,143.0224,267.7899,145.2501" style="stroke: #A80036; stroke-width: 1.0;"/><text fill="#000000" font-family="sans-serif" font-size="13" lengthAdjust="spacingAndGlyphs" textLength="9" x="240" y="126.0566">C</text><!--link internal.c to internal.a--><path d="M267.7298,177.7692 C254.0952,182.287 236.8547,187.2233 221,189.4883 C199.0011,192.631 192.9989,192.631 171,189.4883 C157.0033,187.4888 141.9265,183.4073 129.2041,179.3698 " fill="none" id="internal.c-internal.a" style="stroke: #A80036; stroke-width: 1.0;"/><polygon fill="#A80036" points="124.2702,177.7692,131.5967,184.3511,129.0262,179.312,134.0653,176.7415,124.2702,177.7692" style="stroke: #A80036; stroke-width: 1.0;"/><text fill="#000000" font-family="sans-serif" font-size="13" lengthAdjust="spacingAndGlyphs" textLength="9" x="191.5" y="186.0566">A</text><!--link internal.c to internal.b--><path d="M267.9337,164.4817 C258.5097,162.3445 247.9243,159.1583 239,154.4883 C234.4189,152.091 229.9083,149.1209 225.6319,145.9137 " fill="none" id="internal.c-internal.b" style="stroke: #A80036; stroke-width: 1.0;"/><polygon fill="#A80036" points="221.4397,142.6399,226.0712,151.3318,225.3805,145.7173,230.995,145.0265,221.4397,142.6399" style="stroke: #A80036; stroke-width: 1.0;"/><text fill="#000000" font-family="sans-serif" font-size="13" lengthAdjust="spacingAndGlyphs" textLength="7" x="241" y="151.0566">B</text><!--link internal.c to internal.c--><path d="M284.0352,143.3127 C283.6367,133.5788 286.625,125.4883 293,125.4883 C298.1797,125.4883 301.1236,130.8293 301.8318,138.0532 " fill="none" id="internal.c-internal.c" style="stroke: #A80036; stroke-width: 1.0;"/><polygon fill="#A80036" points="301.9648,143.3127,305.7357,134.2143,301.8382,138.3143,297.7383,134.4168,301.9648,143.3127" style="stroke: #A80036; stroke-width: 1.0;"/><text fill="#000000" font-family="sans-serif" font-size="13" lengthAdjust="spacingAndGlyphs" textLength="9" x="288.5" y="117.0566">C</text><!--
@startuml
left to right direction
state "internal" as internal {
  [*] - -> internal.a

  state "a" as internal.a {
    internal.a - -> internal.a : A
    internal.a - -> internal.b : B
    internal.a - -> internal.c : C
  }

  state "b" as internal.b {
    internal.b - -> internal.a : A
    internal.b - -> internal.b : B
    internal.b - -> internal.c : C
  }

  state "c" as internal.c {
    internal.c - -> internal.a : A
    internal.c - -> internal.b : B
    internal.c - -> internal.c : C
  }
}
@enduml

PlantUML version 1.2018.09(Fri Jul 27 18:58:18 CEST 2018)
(GPL source distribution)
Java Runtime: Java(TM) SE Runtime Environment
JVM: Java HotSpot(TM) 64-Bit Server VM
Java Version: 1.8.0_91-b14
Operating System: Mac OS X
OS Version: 10.13.1
Default Encoding: UTF-8
Language: en
Country: US
--></g></svg>