<?xml version="1.0" encoding="UTF-8" standalone="no"?><svg xmlns="http://www.w3.org/2000/svg" xmlns:xlink="http://www.w3.org/1999/xlink" contentScriptType="application/ecmascript" contentStyleType="text/css" height="284px" preserveAspectRatio="none" style="width:126px;height:284px;" version="1.1" viewBox="0 0 126 284" width="126px" zoomAndPan="magnify"><defs><filter height="300%" id="fe2sqda9p8vg2" width="300%" x="-1" y="-1"><feGaussianBlur result="blurOut" stdDeviation="2.0"/><feColorMatrix in="blurOut" result="blurOut2" type="matrix" values="0 0 0 0 0 0 0 0 0 0 0 0 0 0 0 0 0 0 .4 0"/><feOffset dx="4.0" dy="4.0" in="blurOut2" result="blurOut3"/><feBlend in="SourceGraphic" in2="blurOut3" mode="normal"/></filter></defs><g><rect fill="#F8F8F8" filter="url(#fe2sqda9p8vg2)" height="265.2969" rx="12.5" ry="12.5" style="stroke: #383838; stroke-width: 1.5;" width="107.327" x="7" y="7"/><rect fill="#FFFFFF" height="233" rx="12.5" ry="12.5" style="stroke: #FFFFFF; stroke-width: 1.0;" width="101.327" x="10" y="36.2969"/><line style="stroke: #383838; stroke-width: 1.5;" x1="7" x2="114.327" y1="33.2969" y2="33.2969"/><text fill="#000000" font-family="sans-serif" font-size="14" lengthAdjust="spacingAndGlyphs" textLength="29" x="46.1635" y="24.9951">light</text><ellipse cx="57.327" cy="54.2969" fill="#000000" filter="url(#fe2sqda9p8vg2)" rx="10" ry="10" style="stroke: none; stroke-width: 1.0;"/><g id="light.light.green"><rect fill="#F8F8F8" filter="url(#fe2sqda9p8vg2)" height="50" rx="12.5" ry="12.5" style="stroke: #383838; stroke-width: 1.5;" width="61" x="26.827" y="101.2969"/><line style="stroke: #383838; stroke-width: 1.5;" x1="26.827" x2="87.827" y1="127.5938" y2="127.5938"/><text fill="#000000" font-family="sans-serif" font-size="14" lengthAdjust="spacingAndGlyphs" textLength="41" x="36.827" y="119.292">green</text></g><g id="light.green.light.red"><rect fill="#F8F8F8" filter="url(#fe2sqda9p8vg2)" height="50" rx="12.5" ry="12.5" style="stroke: #383838; stroke-width: 1.5;" width="50" x="32.327" y="204.2969"/><line style="stroke: #383838; stroke-width: 1.5;" x1="32.327" x2="82.327" y1="230.5938" y2="230.5938"/><text fill="#000000" font-family="sans-serif" font-size="14" lengthAdjust="spacingAndGlyphs" textLength="23" x="45.827" y="222.292">red</text></g><!--MD5=[0a8b17fd92ee7bb3453aa76957074bd5]
link *start*light to light.green--><path d="M57.327,64.4469 C57.327,72.4869 57.327,84.6269 57.327,95.9469 " fill="none" id="*start*light-to-light.green" style="stroke: #383838; stroke-width: 1.0;"/><polygon fill="#383838" points="57.327,101.0769,61.327,92.0769,57.327,96.0769,53.327,92.0769,57.327,101.0769" style="stroke: #383838; stroke-width: 1.0;"/><!--MD5=[4fd0815a1c079d3d6a09ca86b891004b]
link light.green to light.red--><path d="M35.227,151.5169 C28.377,161.9069 23.507,174.3669 27.327,186.2969 C28.777,190.8069 30.907,195.2469 33.367,199.4569 " fill="none" id="light.green-to-light.red" style="stroke: #383838; stroke-width: 1.0;"/><polygon fill="#383838" points="36.167,203.9169,34.7801,194.1661,33.5131,199.6793,28,198.4123,36.167,203.9169" style="stroke: #383838; stroke-width: 1.0;"/><text fill="#000000" font-family="sans-serif" font-size="13" lengthAdjust="spacingAndGlyphs" textLength="37" x="28.327" y="182.3638">TIMER</text><!--MD5=[936290f19a98592714438c11941443b4]
link light.red to light.green--><path d="M63.827,204.2469 C65.977,193.5769 67.547,180.8369 66.327,169.2969 C65.887,165.1369 65.207,160.7869 64.417,156.5269 " fill="none" id="light.red-to-light.green" style="stroke: #383838; stroke-width: 1.0;"/><polygon fill="#383838" points="63.447,151.5869,61.2466,161.1868,64.4055,156.4941,69.0982,159.6531,63.447,151.5869" style="stroke: #383838; stroke-width: 1.0;"/><text fill="#000000" font-family="sans-serif" font-size="13" lengthAdjust="spacingAndGlyphs" textLength="37" x="67.327" y="182.3638">TIMER</text></g></svg>