<?xml version="1.0" encoding="UTF-8" standalone="no"?><svg xmlns="http://www.w3.org/2000/svg" xmlns:xlink="http://www.w3.org/1999/xlink" contentScriptType="application/ecmascript" contentStyleType="text/css" height="283px" preserveAspectRatio="none" style="width:144px;height:283px;" version="1.1" viewBox="0 0 144 283" width="144px" zoomAndPan="magnify"><defs><filter height="300%" id="fe2sqda9p8vg2" width="300%" x="-1" y="-1"><feGaussianBlur result="blurOut" stdDeviation="2.0"/><feColorMatrix in="blurOut" result="blurOut2" type="matrix" values="0 0 0 0 0 0 0 0 0 0 0 0 0 0 0 0 0 0 .4 0"/><feOffset dx="4.0" dy="4.0" in="blurOut2" result="blurOut3"/><feBlend in="SourceGraphic" in2="blurOut3" mode="normal"/></filter></defs><g><rect fill="#F8F8F8" filter="url(#fe2sqda9p8vg2)" height="264.4883" rx="12.5" ry="12.5" style="stroke: #383838; stroke-width: 1.5;" width="126" x="6" y="8"/><rect fill="#FFFFFF" height="232" rx="12.5" ry="12.5" style="stroke: #FFFFFF; stroke-width: 1.0;" width="120" x="9" y="37.4883"/><line style="stroke: #383838; stroke-width: 1.5;" x1="6" x2="132" y1="34.4883" y2="34.4883"/><text fill="#000000" font-family="sans-serif" font-size="14" lengthAdjust="spacingAndGlyphs" textLength="31" x="53.5" y="26.5352">light</text><ellipse cx="48.6671" cy="57.4883" fill="#000000" filter="url(#fe2sqda9p8vg2)" rx="10" ry="10" style="stroke: none; stroke-width: 1.0;"/><rect fill="#F8F8F8" filter="url(#fe2sqda9p8vg2)" height="50" rx="12.5" ry="12.5" style="stroke: #383838; stroke-width: 1.5;" width="60" x="18.6671" y="104.4883"/><line style="stroke: #383838; stroke-width: 1.5;" x1="18.6671" x2="78.6671" y1="130.9766" y2="130.9766"/><text fill="#000000" font-family="sans-serif" font-size="14" lengthAdjust="spacingAndGlyphs" textLength="40" x="28.6671" y="123.0234">green</text><rect fill="#F8F8F8" filter="url(#fe2sqda9p8vg2)" height="50" rx="12.5" ry="12.5" style="stroke: #383838; stroke-width: 1.5;" width="50" x="23.6671" y="207.4883"/><line style="stroke: #383838; stroke-width: 1.5;" x1="23.6671" x2="73.6671" y1="233.9766" y2="233.9766"/><text fill="#000000" font-family="sans-serif" font-size="14" lengthAdjust="spacingAndGlyphs" textLength="23" x="37.1671" y="226.0234">red</text><!--link *start*light to light.green--><path d="M48.6671,67.4996 C48.6671,75.7426 48.6671,87.878 48.6671,99.2312 " fill="none" id="*start*light-light.green" style="stroke: #383838; stroke-width: 1.0;"/><polygon fill="#383838" points="48.6671,104.3757,52.6671,95.3757,48.6671,99.3757,44.6671,95.3757,48.6671,104.3757" style="stroke: #383838; stroke-width: 1.0;"/><!--link light.green to light.red--><path d="M27.4975,154.5078 C23.8656,160.0994 20.6326,166.2361 18.6671,172.4883 C15.4556,182.7044 18.4217,193.3226 23.5419,202.7359 " fill="none" id="light.green-light.red" style="stroke: #383838; stroke-width: 1.0;"/><polygon fill="#383838" points="26.2109,207.2531,25.0763,197.4698,23.6673,202.9484,18.1888,201.5395,26.2109,207.2531" style="stroke: #383838; stroke-width: 1.0;"/><text fill="#000000" font-family="sans-serif" font-size="13" lengthAdjust="spacingAndGlyphs" textLength="38" x="19.6671" y="186.0566">TIMER</text><!--link light.red to light.green--><path d="M56.0071,207.4629 C58.3313,196.7297 59.9914,184.029 58.6671,172.4883 C58.1899,168.3289 57.461,163.9867 56.6095,159.7291 " fill="none" id="light.red-light.green" style="stroke: #383838; stroke-width: 1.0;"/><polygon fill="#383838" points="55.5615,154.786,53.5153,164.4199,56.5986,159.6772,61.3413,162.7605,55.5615,154.786" style="stroke: #383838; stroke-width: 1.0;"/><text fill="#000000" font-family="sans-serif" font-size="13" lengthAdjust="spacingAndGlyphs" textLength="38" x="59.6671" y="186.0566">TIMER</text><!--
@startuml
skinparam monochrome true

state "light" as light {
  [*] - -> light.green

  state "green" as light.green {
    light.green - -> light.red : TIMER
  }

  state "red" as light.red {
    light.red - -> light.green : TIMER
  }
}
@enduml

PlantUML version 1.2018.09(Fri Jul 27 18:58:18 CEST 2018)
(GPL source distribution)
Java Runtime: Java(TM) SE Runtime Environment
JVM: Java HotSpot(TM) 64-Bit Server VM
Java Version: 1.8.0_91-b14
Operating System: Mac OS X
OS Version: 10.13.1
Default Encoding: UTF-8
Language: en
Country: US
--></g></svg>