<?xml version="1.0" encoding="UTF-8" standalone="no"?><svg xmlns="http://www.w3.org/2000/svg" xmlns:xlink="http://www.w3.org/1999/xlink" contentScriptType="application/ecmascript" contentStyleType="text/css" height="238px" preserveAspectRatio="none" style="width:1052px;height:238px;" version="1.1" viewBox="0 0 1052 238" width="1052px" zoomAndPan="magnify"><defs><filter height="300%" id="f198robhpa68na" width="300%" x="-1" y="-1"><feGaussianBlur result="blurOut" stdDeviation="2.0"/><feColorMatrix in="blurOut" result="blurOut2" type="matrix" values="0 0 0 0 0 0 0 0 0 0 0 0 0 0 0 0 0 0 .4 0"/><feOffset dx="4.0" dy="4.0" in="blurOut2" result="blurOut3"/><feBlend in="SourceGraphic" in2="blurOut3" mode="normal"/></filter></defs><g><!--cluster payment--><rect fill="#FEFECE" filter="url(#f198robhpa68na)" height="211" rx="12.5" ry="12.5" style="stroke: #A80036; stroke-width: 1.5;" width="1026" x="14" y="16"/><rect fill="#FFFFFF" height="178.5117" rx="12.5" ry="12.5" style="stroke: #FFFFFF; stroke-width: 1.0;" width="1020" x="17" y="45.4883"/><line style="stroke: #A80036; stroke-width: 1.5;" x1="14" x2="1040" y1="42.4883" y2="42.4883"/><text fill="#000000" font-family="sans-serif" font-size="14" lengthAdjust="spacingAndGlyphs" textLength="59" x="497.5" y="33.5352">payment</text><!--cluster payment.method--><rect fill="#FEFECE" filter="url(#f198robhpa68na)" height="175" rx="12.5" ry="12.5" style="stroke: #A80036; stroke-width: 1.5;" width="770" x="262" y="43"/><rect fill="#FFFFFF" height="142.5117" rx="12.5" ry="12.5" style="stroke: #FFFFFF; stroke-width: 1.0;" width="764" x="265" y="72.4883"/><line style="stroke: #A80036; stroke-width: 1.5;" x1="262" x2="1032" y1="69.4883" y2="69.4883"/><text fill="#000000" font-family="sans-serif" font-size="14" lengthAdjust="spacingAndGlyphs" textLength="53" x="620.5" y="60.5352">method</text><ellipse cx="54" cy="53" fill="#000000" filter="url(#f198robhpa68na)" rx="10" ry="10" style="stroke: none; stroke-width: 1.0;"/><rect fill="#FEFECE" filter="url(#f198robhpa68na)" height="50" rx="12.5" ry="12.5" style="stroke: #A80036; stroke-width: 1.5;" width="64" x="22" y="129"/><line style="stroke: #A80036; stroke-width: 1.5;" x1="22" x2="86" y1="155.4883" y2="155.4883"/><text fill="#000000" font-family="sans-serif" font-size="14" lengthAdjust="spacingAndGlyphs" textLength="44" x="32" y="147.5352">review</text><ellipse cx="295" cy="115" fill="#000000" filter="url(#f198robhpa68na)" rx="10" ry="10" style="stroke: none; stroke-width: 1.0;"/><rect fill="#FEFECE" filter="url(#f198robhpa68na)" height="50" rx="12.5" ry="12.5" style="stroke: #A80036; stroke-width: 1.5;" width="51" x="567" y="90"/><line style="stroke: #A80036; stroke-width: 1.5;" x1="567" x2="618" y1="116.4883" y2="116.4883"/><text fill="#000000" font-family="sans-serif" font-size="14" lengthAdjust="spacingAndGlyphs" textLength="31" x="577" y="108.5352">cash</text><rect fill="#FEFECE" filter="url(#f198robhpa68na)" height="50" rx="12.5" ry="12.5" style="stroke: #A80036; stroke-width: 1.5;" width="59" x="965" y="109"/><line style="stroke: #A80036; stroke-width: 1.5;" x1="965" x2="1024" y1="135.4883" y2="135.4883"/><text fill="#000000" font-family="sans-serif" font-size="14" lengthAdjust="spacingAndGlyphs" textLength="39" x="975" y="127.5352">check</text><rect fill="#FEFECE" filter="url(#f198robhpa68na)" height="50" rx="12.5" ry="12.5" style="stroke: #A80036; stroke-width: 1.5;" width="50" x="270" y="160"/><line style="stroke: #A80036; stroke-width: 1.5;" x1="270" x2="320" y1="186.4883" y2="186.4883"/><text fill="#000000" font-family="sans-serif" font-size="14" lengthAdjust="spacingAndGlyphs" textLength="25" x="282.5" y="178.5352">hist</text><!--link *start*payment to payment.method--><path d="M64.0486,53.7088 C86.1415,55.2673 141.0175,59.1382 191.7346,62.7157 C217.0931,64.5045 241.4119,66.2199 260.0732,67.5363 C260.6564,67.5774 261.234,67.6182 261.806,67.6585 " fill="none" id="*start*payment-payment.method" style="stroke: #A80036; stroke-width: 1.0;"/><polygon fill="#A80036" points="261.806,67.6585,253.1098,63.0352,256.8184,67.3067,252.5469,71.0153,261.806,67.6585" style="stroke: #A80036; stroke-width: 1.0;"/><!--link *start*payment.method to payment.method.cash--><path d="M305.1209,115 C321.271,115 353.8681,115 381.5,115 C381.5,115 381.5,115 505.5,115 C524.2528,115 545.2792,115 561.9631,115 " fill="none" id="*start*payment.method-payment.method.cash" style="stroke: #A80036; stroke-width: 1.0;"/><polygon fill="#A80036" points="566.9942,115,557.9942,111,561.9942,115,557.9942,119,566.9942,115" style="stroke: #A80036; stroke-width: 1.0;"/><!--link payment.method to payment.review--><path d="M261.4155,81.7058 C260.9229,81.8775 260.4262,82.0506 259.9254,82.2252 C258.9237,82.5743 257.9059,82.929 256.8726,83.2892 C252.7393,84.7298 248.3581,86.2569 243.7742,87.8546 C234.6066,91.05 224.6289,94.5277 214.2049,98.161 C172.5087,112.6941 123.6718,129.7161 90.9785,141.1112 " fill="none" id="payment.method-payment.review" style="stroke: #A80036; stroke-width: 1.0;"/><polygon fill="#A80036" points="86.0029,142.8454,95.818,143.6603,90.7243,141.1997,93.1849,136.106,86.0029,142.8454" style="stroke: #A80036; stroke-width: 1.0;"/><text fill="#000000" font-family="sans-serif" font-size="13" lengthAdjust="spacingAndGlyphs" textLength="33" x="161.5" y="97.5684">NEXT</text><!--link payment.method.cash to payment.method.check--><path d="M613.8177,140.0213 C629.9889,156.1018 653.7677,174 679.5,174 C679.5,174 679.5,174 903.5,174 C923.3758,174 943.7862,165.904 960.2274,156.9965 " fill="none" id="payment.method.cash-payment.method.check" style="stroke: #A80036; stroke-width: 1.0;"/><polygon fill="#A80036" points="964.7556,154.4687,954.9474,155.363,960.3898,156.9059,958.8469,162.3483,964.7556,154.4687" style="stroke: #A80036; stroke-width: 1.0;"/><text fill="#000000" font-family="sans-serif" font-size="13" lengthAdjust="spacingAndGlyphs" textLength="99" x="742" y="170.5684">SWITCH_CHECK</text><!--link payment.method.check to payment.method.cash--><path d="M964.8613,109.674 C947.9437,98.2057 925.7267,87 903.5,87 C679.5,87 679.5,87 679.5,87 C660.0875,87 639.3595,93.395 623.007,100.0726 " fill="none" id="payment.method.check-payment.method.cash" style="stroke: #A80036; stroke-width: 1.0;"/><polygon fill="#A80036" points="618.0788,102.1473,627.9257,102.3417,622.687,100.2072,624.8215,94.9685,618.0788,102.1473" style="stroke: #A80036; stroke-width: 1.0;"/><text fill="#000000" font-family="sans-serif" font-size="13" lengthAdjust="spacingAndGlyphs" textLength="91" x="746" y="83.5684">SWITCH_CASH</text><!--link payment.review to payment.method.hist--><path d="M86.0029,158.1166 C132.7295,164.127 219.0235,175.2271 264.7417,181.1079 " fill="none" id="payment.review-payment.method.hist" style="stroke: #A80036; stroke-width: 1.0;"/><polygon fill="#A80036" points="269.8422,181.7639,261.4262,176.6482,264.8831,181.1259,260.4054,184.5828,269.8422,181.7639" style="stroke: #A80036; stroke-width: 1.0;"/><text fill="#000000" font-family="sans-serif" font-size="13" lengthAdjust="spacingAndGlyphs" textLength="60" x="148" y="163.5684">PREVIOUS</text><!--
@startuml
left to right direction
state "payment" as payment {
  [*] - -> payment.method

  state "method" as payment.method {
    [*] - -> payment.method.cash

    payment.method - -> payment.review : NEXT
    state "cash" as payment.method.cash {
      payment.method.cash - -> payment.method.check : SWITCH_CHECK
    }

    state "check" as payment.method.check {
      payment.method.check - -> payment.method.cash : SWITCH_CASH
    }

    state "hist" as payment.method.hist {
    }
  }

  state "review" as payment.review {
    payment.review - -> payment.method.hist : PREVIOUS
  }
}
@enduml

PlantUML version 1.2018.09(Fri Jul 27 18:58:18 CEST 2018)
(GPL source distribution)
Java Runtime: Java(TM) SE Runtime Environment
JVM: Java HotSpot(TM) 64-Bit Server VM
Java Version: 1.8.0_91-b14
Operating System: Mac OS X
OS Version: 10.13.1
Default Encoding: UTF-8
Language: en
Country: US
--></g></svg>