<?xml version="1.0" encoding="UTF-8" standalone="no"?><svg xmlns="http://www.w3.org/2000/svg" xmlns:xlink="http://www.w3.org/1999/xlink" contentScriptType="application/ecmascript" contentStyleType="text/css" height="293px" preserveAspectRatio="none" style="width:688px;height:293px;" version="1.1" viewBox="0 0 688 293" width="688px" zoomAndPan="magnify"><defs><filter height="300%" id="f198robhpa68na" width="300%" x="-1" y="-1"><feGaussianBlur result="blurOut" stdDeviation="2.0"/><feColorMatrix in="blurOut" result="blurOut2" type="matrix" values="0 0 0 0 0 0 0 0 0 0 0 0 0 0 0 0 0 0 .4 0"/><feOffset dx="4.0" dy="4.0" in="blurOut2" result="blurOut3"/><feBlend in="SourceGraphic" in2="blurOut3" mode="normal"/></filter></defs><g><!--MD5=[2766a367a4a8c35b562b373df6255952]
cluster payment--><rect fill="#FEFECE" filter="url(#f198robhpa68na)" height="274" rx="12.5" ry="12.5" style="stroke: #A80036; stroke-width: 1.5;" width="669" x="7" y="7"/><rect fill="#FFFFFF" height="241.7031" rx="12.5" ry="12.5" style="stroke: #FFFFFF; stroke-width: 1.0;" width="663" x="10" y="36.2969"/><line style="stroke: #A80036; stroke-width: 1.5;" x1="7" x2="676" y1="33.2969" y2="33.2969"/><text fill="#000000" font-family="sans-serif" font-size="14" lengthAdjust="spacingAndGlyphs" textLength="60" x="311.5" y="23.9951">payment</text><!--MD5=[d75b03198d9dbaab8b68f2ae3db48da6]
cluster payment.method--><rect fill="#FEFECE" filter="url(#f198robhpa68na)" height="191" rx="12.5" ry="12.5" style="stroke: #A80036; stroke-width: 1.5;" width="436" x="208" y="58"/><rect fill="#FFFFFF" height="158.7031" rx="12.5" ry="12.5" style="stroke: #FFFFFF; stroke-width: 1.0;" width="430" x="211" y="87.2969"/><line style="stroke: #A80036; stroke-width: 1.5;" x1="208" x2="644" y1="84.2969" y2="84.2969"/><text fill="#000000" font-family="sans-serif" font-size="14" lengthAdjust="spacingAndGlyphs" textLength="54" x="399" y="74.9951">method</text><ellipse cx="55" cy="85" fill="#000000" filter="url(#f198robhpa68na)" rx="10" ry="10" style="stroke: none; stroke-width: 1.0;"/><g id="payment.method.payment.review"><rect fill="#FEFECE" filter="url(#f198robhpa68na)" height="50" rx="12.5" ry="12.5" style="stroke: #A80036; stroke-width: 1.5;" width="64" x="23" y="144"/><line style="stroke: #A80036; stroke-width: 1.5;" x1="23" x2="87" y1="170.2969" y2="170.2969"/><text fill="#000000" font-family="sans-serif" font-size="14" lengthAdjust="spacingAndGlyphs" textLength="44" x="33" y="161.9951">review</text></g><ellipse cx="257" cy="130" fill="#000000" filter="url(#f198robhpa68na)" rx="10" ry="10" style="stroke: none; stroke-width: 1.0;"/><g id="payment.method.payment.method.cash"><rect fill="#FEFECE" filter="url(#f198robhpa68na)" height="50" rx="12.5" ry="12.5" style="stroke: #A80036; stroke-width: 1.5;" width="53" x="343" y="116"/><line style="stroke: #A80036; stroke-width: 1.5;" x1="343" x2="396" y1="142.2969" y2="142.2969"/><text fill="#000000" font-family="sans-serif" font-size="14" lengthAdjust="spacingAndGlyphs" textLength="33" x="353" y="133.9951">cash</text></g><g id="payment.method.cash.payment.method.check"><rect fill="#FEFECE" filter="url(#f198robhpa68na)" height="50" rx="12.5" ry="12.5" style="stroke: #A80036; stroke-width: 1.5;" width="62" x="558" y="141"/><line style="stroke: #A80036; stroke-width: 1.5;" x1="558" x2="620" y1="167.2969" y2="167.2969"/><text fill="#000000" font-family="sans-serif" font-size="14" lengthAdjust="spacingAndGlyphs" textLength="42" x="568" y="158.9951">check</text></g><g id="payment.method.hist"><rect fill="#FEFECE" filter="url(#f198robhpa68na)" height="50" rx="12.5" ry="12.5" style="stroke: #A80036; stroke-width: 1.5;" width="50" x="232" y="175"/><line style="stroke: #A80036; stroke-width: 1.5;" x1="232" x2="282" y1="201.2969" y2="201.2969"/><text fill="#000000" font-family="sans-serif" font-size="14" lengthAdjust="spacingAndGlyphs" textLength="25" x="244.5" y="192.9951">hist</text></g><!--MD5=[85d0090473481db7178ec6da4ec42033]
link *start*payment to payment.method--><path d="M65.11,85 C84.37,85 130.9125,85 173.2163,85 C183.7922,85 194.1032,85 203.6568,85 C204.851,85 206.0333,85 207.2029,85 " fill="none" id="*start*payment-to-payment.method" style="stroke: #A80036; stroke-width: 1.0;"/><polygon fill="#A80036" points="207.2029,85,198.2029,81,202.2029,85,198.2029,89,207.2029,85" style="stroke: #A80036; stroke-width: 1.0;"/><!--MD5=[1e7b484909643e0294ef4e6cb770dea4]
link *start*payment.method to payment.method.cash--><path d="M267.04,130.9 C282.35,132.42 314.01,135.58 337.92,137.96 " fill="none" id="*start*payment.method-to-payment.method.cash" style="stroke: #A80036; stroke-width: 1.0;"/><polygon fill="#A80036" points="342.9,138.45,334.3441,133.5719,337.925,137.9511,333.5458,141.532,342.9,138.45" style="stroke: #A80036; stroke-width: 1.0;"/><!--MD5=[17f6254e65e136057294c374356c8acf]
link payment.method to payment.review--><path d="M207.8675,92.5458 C207.4382,92.6953 207.0098,92.8477 206.5825,93.0031 C204.8735,93.6248 203.1821,94.2946 201.5202,95.0164 C198.1966,96.46 194.9913,98.1113 192,100 C187.19,103.04 188.48,106.49 184,110 C156.24,131.72 119.2,147.68 92.11,157.48 " fill="none" id="payment.method-to-payment.review" style="stroke: #A80036; stroke-width: 1.0;"/><polygon fill="#A80036" points="87.17,159.24,96.9913,159.9762,91.8781,157.5565,94.2977,152.4433,87.17,159.24" style="stroke: #A80036; stroke-width: 1.0;"/><text fill="#000000" font-family="sans-serif" font-size="13" lengthAdjust="spacingAndGlyphs" textLength="33" x="134" y="106.0669">NEXT</text><!--MD5=[ac5114bea2178850fac002e5f2ee8b02]
link payment.method.cash to payment.method.check--><path d="M389.86,166.14 C399.46,176.55 412,187.47 426,193 C468.16,209.66 483.68,202.51 528,193 C536.32,191.21 544.89,188.18 552.84,184.77 " fill="none" id="payment.method.cash-to-payment.method.check" style="stroke: #A80036; stroke-width: 1.0;"/><polygon fill="#A80036" points="557.71,182.61,547.8611,182.6043,553.1398,184.638,551.106,189.9167,557.71,182.61" style="stroke: #A80036; stroke-width: 1.0;"/><text fill="#000000" font-family="sans-serif" font-size="13" lengthAdjust="spacingAndGlyphs" textLength="100" x="427" y="189.0669">SWITCH_CHECK</text><!--MD5=[3ecde9b1ab78bfc054ed321c2d7a1249]
link payment.method.check to payment.method.cash--><path d="M557.7,162.52 C516.46,157.78 443.04,149.34 401.46,144.56 " fill="none" id="payment.method.check-to-payment.method.cash" style="stroke: #A80036; stroke-width: 1.0;"/><polygon fill="#A80036" points="396.3,143.97,404.7844,148.9716,401.2673,144.541,405.6979,141.0239,396.3,143.97" style="stroke: #A80036; stroke-width: 1.0;"/><text fill="#000000" font-family="sans-serif" font-size="13" lengthAdjust="spacingAndGlyphs" textLength="93" x="430.5" y="144.0669">SWITCH_CASH</text><!--MD5=[cba2b3d9c9e7bdb5044f0be821326750]
link payment.review to payment.method.hist--><path d="M87.14,178.12 C96.66,180.65 107.2,183.2 117,185 C154.64,191.93 198.65,196.01 226.9,198.13 " fill="none" id="payment.review-to-payment.method.hist" style="stroke: #A80036; stroke-width: 1.0;"/><polygon fill="#A80036" points="231.99,198.5,223.312,193.8424,227.0038,198.1285,222.7177,201.8203,231.99,198.5" style="stroke: #A80036; stroke-width: 1.0;"/><text fill="#000000" font-family="sans-serif" font-size="13" lengthAdjust="spacingAndGlyphs" textLength="65" x="118" y="181.0669">PREVIOUS</text></g></svg>