<?xml version="1.0" encoding="UTF-8" standalone="no"?><svg xmlns="http://www.w3.org/2000/svg" xmlns:xlink="http://www.w3.org/1999/xlink" contentScriptType="application/ecmascript" contentStyleType="text/css" height="603px" preserveAspectRatio="none" style="width:532px;height:603px;" version="1.1" viewBox="0 0 532 603" width="532px" zoomAndPan="magnify"><defs><filter height="300%" id="fbe5jqjre1r7r" width="300%" x="-1" y="-1"><feGaussianBlur result="blurOut" stdDeviation="2.0"/><feColorMatrix in="blurOut" result="blurOut2" type="matrix" values="0 0 0 0 0 0 0 0 0 0 0 0 0 0 0 0 0 0 .4 0"/><feOffset dx="4.0" dy="4.0" in="blurOut2" result="blurOut3"/><feBlend in="SourceGraphic" in2="blurOut3" mode="normal"/></filter></defs><g><rect fill="#FEFECE" filter="url(#fbe5jqjre1r7r)" height="584.0938" rx="12.5" ry="12.5" style="stroke: #A80036; stroke-width: 1.5;" width="513" x="7" y="7"/><rect fill="#FFFFFF" height="551.7969" rx="12.5" ry="12.5" style="stroke: #FFFFFF; stroke-width: 1.0;" width="507" x="10" y="36.2969"/><line style="stroke: #A80036; stroke-width: 1.5;" x1="7" x2="520" y1="33.2969" y2="33.2969"/><text fill="#000000" font-family="sans-serif" font-size="14" lengthAdjust="spacingAndGlyphs" textLength="66" x="230.5" y="24.9951">textEditor</text><rect fill="#FEFECE" filter="url(#fbe5jqjre1r7r)" height="106.2969" rx="12.5" ry="12.5" style="stroke: #A80036; stroke-width: 1.5;" width="317" x="104" y="468.7969"/><rect fill="#FFFFFF" height="74" rx="12.5" ry="12.5" style="stroke: #FFFFFF; stroke-width: 1.0;" width="311" x="107" y="498.0938"/><line style="stroke: #A80036; stroke-width: 1.5;" x1="104" x2="421" y1="495.0938" y2="495.0938"/><text fill="#000000" font-family="sans-serif" font-size="14" lengthAdjust="spacingAndGlyphs" textLength="30" x="247.5" y="486.792">bold</text><ellipse cx="125" cy="532.0938" fill="#000000" filter="url(#fbe5jqjre1r7r)" rx="10" ry="10" style="stroke: none; stroke-width: 1.0;"/><g id="textEditor.bold.on"><rect fill="#FEFECE" filter="url(#fbe5jqjre1r7r)" height="50" rx="12.5" ry="12.5" style="stroke: #A80036; stroke-width: 1.5;" width="50" x="355" y="507.0938"/><line style="stroke: #A80036; stroke-width: 1.5;" x1="355" x2="405" y1="533.3906" y2="533.3906"/><text fill="#000000" font-family="sans-serif" font-size="14" lengthAdjust="spacingAndGlyphs" textLength="18" x="371" y="525.0889">on</text></g><g id="textEditor.bold.textEditor.bold.off"><rect fill="#FEFECE" filter="url(#fbe5jqjre1r7r)" height="50" rx="12.5" ry="12.5" style="stroke: #A80036; stroke-width: 1.5;" width="50" x="172" y="507.0938"/><line style="stroke: #A80036; stroke-width: 1.5;" x1="172" x2="222" y1="533.3906" y2="533.3906"/><text fill="#000000" font-family="sans-serif" font-size="14" lengthAdjust="spacingAndGlyphs" textLength="17" x="188.5" y="525.0889">off</text></g><!--MD5=[65baebe0cadcf28440d2f3c6053beae1]
link *start*textEditor.bold to textEditor.bold.off--><path d="M135.15,532.0938 C143.19,532.0938 155.33,532.0938 166.65,532.0938 " fill="none" id="*start*textEditor.bold-to-textEditor.bold.off" style="stroke: #A80036; stroke-width: 1.0;"/><polygon fill="#A80036" points="171.78,532.0938,162.78,528.0938,166.78,532.0938,162.78,536.0938,171.78,532.0938" style="stroke: #A80036; stroke-width: 1.0;"/><!--MD5=[44365215cda6413b0ffa8dd29edd82df]
link textEditor.bold.on to textEditor.bold.off--><path d="M354.73,545.1637 C349.06,547.6238 342.95,549.8138 337,551.0938 C294.86,560.1838 282.14,560.1838 240,551.0938 C235.73,550.1738 231.36,548.7837 227.15,547.1637 " fill="none" id="textEditor.bold.on-to-textEditor.bold.off" style="stroke: #A80036; stroke-width: 1.0;"/><polygon fill="#A80036" points="222.27,545.1637,229.0956,552.2638,226.9005,547.0502,232.114,544.8551,222.27,545.1637" style="stroke: #A80036; stroke-width: 1.0;"/><text fill="#000000" font-family="sans-serif" font-size="13" lengthAdjust="spacingAndGlyphs" textLength="95" x="241" y="547.1606">TOGGLE_BOLD</text><!--MD5=[2b133ce2660f9bc4346b404375ac3efc]
link textEditor.bold.off to textEditor.bold.on--><path d="M222.04,532.0938 C255.03,532.0938 314.3,532.0938 349.8,532.0938 " fill="none" id="textEditor.bold.off-to-textEditor.bold.on" style="stroke: #A80036; stroke-width: 1.0;"/><polygon fill="#A80036" points="354.87,532.0938,345.87,528.0938,349.87,532.0938,345.87,536.0938,354.87,532.0938" style="stroke: #A80036; stroke-width: 1.0;"/><text fill="#000000" font-family="sans-serif" font-size="13" lengthAdjust="spacingAndGlyphs" textLength="95" x="241" y="528.1606">TOGGLE_BOLD</text><rect fill="#FEFECE" filter="url(#fbe5jqjre1r7r)" height="106.2969" rx="12.5" ry="12.5" style="stroke: #A80036; stroke-width: 1.5;" width="355" x="85" y="344.7969"/><rect fill="#FFFFFF" height="74" rx="12.5" ry="12.5" style="stroke: #FFFFFF; stroke-width: 1.0;" width="349" x="88" y="374.0938"/><line style="stroke: #A80036; stroke-width: 1.5;" x1="85" x2="440" y1="371.0938" y2="371.0938"/><text fill="#000000" font-family="sans-serif" font-size="14" lengthAdjust="spacingAndGlyphs" textLength="65" x="230" y="362.792">underline</text><ellipse cx="106" cy="408.0938" fill="#000000" filter="url(#fbe5jqjre1r7r)" rx="10" ry="10" style="stroke: none; stroke-width: 1.0;"/><g id="textEditor.underline.on"><rect fill="#FEFECE" filter="url(#fbe5jqjre1r7r)" height="50" rx="12.5" ry="12.5" style="stroke: #A80036; stroke-width: 1.5;" width="50" x="374" y="383.0938"/><line style="stroke: #A80036; stroke-width: 1.5;" x1="374" x2="424" y1="409.3906" y2="409.3906"/><text fill="#000000" font-family="sans-serif" font-size="14" lengthAdjust="spacingAndGlyphs" textLength="18" x="390" y="401.0889">on</text></g><g id="textEditor.underline.textEditor.underline.off"><rect fill="#FEFECE" filter="url(#fbe5jqjre1r7r)" height="50" rx="12.5" ry="12.5" style="stroke: #A80036; stroke-width: 1.5;" width="50" x="153" y="383.0938"/><line style="stroke: #A80036; stroke-width: 1.5;" x1="153" x2="203" y1="409.3906" y2="409.3906"/><text fill="#000000" font-family="sans-serif" font-size="14" lengthAdjust="spacingAndGlyphs" textLength="17" x="169.5" y="401.0889">off</text></g><!--MD5=[6f5eb5e2a329a97abe2f85603fabcd93]
link *start*textEditor.underline to textEditor.underline.off--><path d="M116.15,408.0938 C124.19,408.0938 136.33,408.0938 147.65,408.0938 " fill="none" id="*start*textEditor.underline-to-textEditor.underline.off" style="stroke: #A80036; stroke-width: 1.0;"/><polygon fill="#A80036" points="152.78,408.0938,143.78,404.0938,147.78,408.0938,143.78,412.0938,152.78,408.0938" style="stroke: #A80036; stroke-width: 1.0;"/><!--MD5=[33e487519ca14fe4e393a204f5d2ed0e]
link textEditor.underline.on to textEditor.underline.off--><path d="M373.73,421.1638 C368.06,423.6238 361.95,425.8138 356,427.0938 C297.35,439.7438 279.65,439.7438 221,427.0938 C216.73,426.1738 212.36,424.7838 208.15,423.1638 " fill="none" id="textEditor.underline.on-to-textEditor.underline.off" style="stroke: #A80036; stroke-width: 1.0;"/><polygon fill="#A80036" points="203.27,421.1638,210.0956,428.2638,207.9005,423.0502,213.114,420.8551,203.27,421.1638" style="stroke: #A80036; stroke-width: 1.0;"/><text fill="#000000" font-family="sans-serif" font-size="13" lengthAdjust="spacingAndGlyphs" textLength="133" x="222" y="423.1606">TOGGLE_UNDERLINE</text><!--MD5=[11e67a51cd955db5ff5b17e317c56dc9]
link textEditor.underline.off to textEditor.underline.on--><path d="M203.27,408.0938 C243.83,408.0938 325.22,408.0938 368.83,408.0938 " fill="none" id="textEditor.underline.off-to-textEditor.underline.on" style="stroke: #A80036; stroke-width: 1.0;"/><polygon fill="#A80036" points="373.95,408.0938,364.95,404.0938,368.95,408.0938,364.95,412.0938,373.95,408.0938" style="stroke: #A80036; stroke-width: 1.0;"/><text fill="#000000" font-family="sans-serif" font-size="13" lengthAdjust="spacingAndGlyphs" textLength="133" x="222" y="404.1606">TOGGLE_UNDERLINE</text><rect fill="#FEFECE" filter="url(#fbe5jqjre1r7r)" height="106.2969" rx="12.5" ry="12.5" style="stroke: #A80036; stroke-width: 1.5;" width="328" x="98.5" y="220.7969"/><rect fill="#FFFFFF" height="74" rx="12.5" ry="12.5" style="stroke: #FFFFFF; stroke-width: 1.0;" width="322" x="101.5" y="250.0938"/><line style="stroke: #A80036; stroke-width: 1.5;" x1="98.5" x2="426.5" y1="247.0938" y2="247.0938"/><text fill="#000000" font-family="sans-serif" font-size="14" lengthAdjust="spacingAndGlyphs" textLength="38" x="243.5" y="238.792">italics</text><ellipse cx="119.5" cy="284.0938" fill="#000000" filter="url(#fbe5jqjre1r7r)" rx="10" ry="10" style="stroke: none; stroke-width: 1.0;"/><g id="textEditor.italics.on"><rect fill="#FEFECE" filter="url(#fbe5jqjre1r7r)" height="50" rx="12.5" ry="12.5" style="stroke: #A80036; stroke-width: 1.5;" width="50" x="360.5" y="259.0938"/><line style="stroke: #A80036; stroke-width: 1.5;" x1="360.5" x2="410.5" y1="285.3906" y2="285.3906"/><text fill="#000000" font-family="sans-serif" font-size="14" lengthAdjust="spacingAndGlyphs" textLength="18" x="376.5" y="277.0889">on</text></g><g id="textEditor.italics.textEditor.italics.off"><rect fill="#FEFECE" filter="url(#fbe5jqjre1r7r)" height="50" rx="12.5" ry="12.5" style="stroke: #A80036; stroke-width: 1.5;" width="50" x="166.5" y="259.0938"/><line style="stroke: #A80036; stroke-width: 1.5;" x1="166.5" x2="216.5" y1="285.3906" y2="285.3906"/><text fill="#000000" font-family="sans-serif" font-size="14" lengthAdjust="spacingAndGlyphs" textLength="17" x="183" y="277.0889">off</text></g><!--MD5=[56baebe8c1bec3a110cdccf6e035f078]
link *start*textEditor.italics to textEditor.italics.off--><path d="M129.65,284.0938 C137.69,284.0938 149.83,284.0938 161.15,284.0938 " fill="none" id="*start*textEditor.italics-to-textEditor.italics.off" style="stroke: #A80036; stroke-width: 1.0;"/><polygon fill="#A80036" points="166.28,284.0938,157.28,280.0938,161.28,284.0938,157.28,288.0938,166.28,284.0938" style="stroke: #A80036; stroke-width: 1.0;"/><!--MD5=[fe89358be78afd89439abf03dbb2bb1c]
link textEditor.italics.on to textEditor.italics.off--><path d="M360.23,297.1638 C354.56,299.6138 348.45,301.8138 342.5,303.0938 C295.58,313.2138 281.42,313.2138 234.5,303.0938 C230.23,302.1738 225.86,300.7838 221.65,299.1538 " fill="none" id="textEditor.italics.on-to-textEditor.italics.off" style="stroke: #A80036; stroke-width: 1.0;"/><polygon fill="#A80036" points="216.77,297.1638,223.5956,304.2638,221.4005,299.0502,226.614,296.8551,216.77,297.1638" style="stroke: #A80036; stroke-width: 1.0;"/><text fill="#000000" font-family="sans-serif" font-size="13" lengthAdjust="spacingAndGlyphs" textLength="106" x="235.5" y="299.1606">TOGGLE_ITALICS</text><!--MD5=[be9d2632f206cdd48bb7c98a491966b8]
link textEditor.italics.off to textEditor.italics.on--><path d="M216.82,284.0938 C252.02,284.0938 317.09,284.0938 354.99,284.0938 " fill="none" id="textEditor.italics.off-to-textEditor.italics.on" style="stroke: #A80036; stroke-width: 1.0;"/><polygon fill="#A80036" points="360.38,284.0938,351.38,280.0938,355.38,284.0938,351.38,288.0938,360.38,284.0938" style="stroke: #A80036; stroke-width: 1.0;"/><text fill="#000000" font-family="sans-serif" font-size="13" lengthAdjust="spacingAndGlyphs" textLength="106" x="235.5" y="280.1606">TOGGLE_ITALICS</text><rect fill="#FEFECE" filter="url(#fbe5jqjre1r7r)" height="157.2969" rx="12.5" ry="12.5" style="stroke: #A80036; stroke-width: 1.5;" width="487" x="19" y="45.2969"/><rect fill="#FFFFFF" height="125" rx="12.5" ry="12.5" style="stroke: #FFFFFF; stroke-width: 1.0;" width="481" x="22" y="74.5938"/><line style="stroke: #A80036; stroke-width: 1.5;" x1="19" x2="506" y1="71.5938" y2="71.5938"/><text fill="#000000" font-family="sans-serif" font-size="14" lengthAdjust="spacingAndGlyphs" textLength="19" x="253" y="63.292">list</text><ellipse cx="40" cy="159.5938" fill="#000000" filter="url(#fbe5jqjre1r7r)" rx="10" ry="10" style="stroke: none; stroke-width: 1.0;"/><g id="textEditor.list.textEditor.list.none"><rect fill="#FEFECE" filter="url(#fbe5jqjre1r7r)" height="50" rx="12.5" ry="12.5" style="stroke: #A80036; stroke-width: 1.5;" width="56" x="87" y="134.5938"/><line style="stroke: #A80036; stroke-width: 1.5;" x1="87" x2="143" y1="160.8906" y2="160.8906"/><text fill="#000000" font-family="sans-serif" font-size="14" lengthAdjust="spacingAndGlyphs" textLength="36" x="97" y="152.5889">none</text></g><g id="textEditor.list.none.textEditor.list.bullets"><rect fill="#FEFECE" filter="url(#fbe5jqjre1r7r)" height="50" rx="12.5" ry="12.5" style="stroke: #A80036; stroke-width: 1.5;" width="66" x="238.5" y="83.5938"/><line style="stroke: #A80036; stroke-width: 1.5;" x1="238.5" x2="304.5" y1="109.8906" y2="109.8906"/><text fill="#000000" font-family="sans-serif" font-size="14" lengthAdjust="spacingAndGlyphs" textLength="46" x="248.5" y="101.5889">bullets</text></g><g id="textEditor.list.none.textEditor.list.numbers"><rect fill="#FEFECE" filter="url(#fbe5jqjre1r7r)" height="50" rx="12.5" ry="12.5" style="stroke: #A80036; stroke-width: 1.5;" width="82" x="408" y="134.5938"/><line style="stroke: #A80036; stroke-width: 1.5;" x1="408" x2="490" y1="160.8906" y2="160.8906"/><text fill="#000000" font-family="sans-serif" font-size="14" lengthAdjust="spacingAndGlyphs" textLength="62" x="418" y="152.5889">numbers</text></g><!--MD5=[7c84f7a8942fc3b7aa0000641b161325]
link *start*textEditor.list to textEditor.list.none--><path d="M50.25,159.5938 C58.23,159.5938 70.26,159.5938 81.72,159.5938 " fill="none" id="*start*textEditor.list-to-textEditor.list.none" style="stroke: #A80036; stroke-width: 1.0;"/><polygon fill="#A80036" points="86.93,159.5938,77.93,155.5938,81.93,159.5938,77.93,163.5938,86.93,159.5938" style="stroke: #A80036; stroke-width: 1.0;"/><!--MD5=[629ece3c019e0abe909cf672ff9beb72]
link textEditor.list.none to textEditor.list.bullets--><path d="M143.15,134.9638 C148.73,130.9438 154.81,127.2338 161,124.5938 C183.74,114.8938 211.29,110.9038 233.06,109.3338 " fill="none" id="textEditor.list.none-to-textEditor.list.bullets" style="stroke: #A80036; stroke-width: 1.0;"/><polygon fill="#A80036" points="238.18,109.0038,228.9364,105.6042,233.1908,109.3325,229.4625,113.5869,238.18,109.0038" style="stroke: #A80036; stroke-width: 1.0;"/><text fill="#000000" font-family="sans-serif" font-size="13" lengthAdjust="spacingAndGlyphs" textLength="57" x="162" y="107.6606">BULLETS</text><!--MD5=[06074cdb4c8d532e550e2183625bdd2e]
link textEditor.list.none to textEditor.list.numbers--><path d="M143.12,160.9938 C149.01,161.2438 155.21,161.4638 161,161.5938 C262.75,163.8538 288.24,163.3438 390,161.5938 C394.13,161.5238 398.42,161.4238 402.72,161.3038 " fill="none" id="textEditor.list.none-to-textEditor.list.numbers" style="stroke: #A80036; stroke-width: 1.0;"/><polygon fill="#A80036" points="407.76,161.1638,398.6494,157.4224,402.762,161.3065,398.8779,165.4192,407.76,161.1638" style="stroke: #A80036; stroke-width: 1.0;"/><text fill="#000000" font-family="sans-serif" font-size="13" lengthAdjust="spacingAndGlyphs" textLength="65" x="239" y="159.6606">NUMBERS</text><!--MD5=[17844036b6f86d9f9b986e7c3850488c]
link textEditor.list.bullets to textEditor.list.none--><path d="M241.26,133.7338 C234.63,138.3438 227.36,142.6238 220,145.5938 C197.26,154.7638 169.68,158.1538 148.64,159.3138 " fill="none" id="textEditor.list.bullets-to-textEditor.list.none" style="stroke: #A80036; stroke-width: 1.0;"/><polygon fill="#A80036" points="143.44,159.5638,152.624,163.1211,148.4341,159.3205,152.2347,155.1306,143.44,159.5638" style="stroke: #A80036; stroke-width: 1.0;"/><text fill="#000000" font-family="sans-serif" font-size="13" lengthAdjust="spacingAndGlyphs" textLength="38" x="171.5" y="141.6606">NONE</text><!--MD5=[7e1e2a9fad60d7d6ab5590cc34891833]
link textEditor.list.bullets to textEditor.list.numbers--><path d="M304.74,109.4738 C328.83,110.9538 362.24,114.8038 390,124.5938 C395.63,126.5838 401.31,129.1538 406.8,132.0138 " fill="none" id="textEditor.list.bullets-to-textEditor.list.numbers" style="stroke: #A80036; stroke-width: 1.0;"/><polygon fill="#A80036" points="411.36,134.4638,405.3352,126.6726,406.9586,132.0915,401.5396,133.7149,411.36,134.4638" style="stroke: #A80036; stroke-width: 1.0;"/><text fill="#000000" font-family="sans-serif" font-size="13" lengthAdjust="spacingAndGlyphs" textLength="65" x="324" y="107.6606">NUMBERS</text><!--MD5=[426f3a4fac6ea919fafb13c9702ad111]
link textEditor.list.numbers to textEditor.list.bullets--><path d="M407.9,160.3138 C382.74,159.5138 350.06,156.1438 323,145.5938 C317.03,143.2638 311.13,140.0438 305.58,136.4738 " fill="none" id="textEditor.list.numbers-to-textEditor.list.bullets" style="stroke: #A80036; stroke-width: 1.0;"/><polygon fill="#A80036" points="301.42,133.6738,306.6699,142.0067,305.5737,136.4571,311.1233,135.3609,301.42,133.6738" style="stroke: #A80036; stroke-width: 1.0;"/><text fill="#000000" font-family="sans-serif" font-size="13" lengthAdjust="spacingAndGlyphs" textLength="57" x="328" y="141.6606">BULLETS</text><!--MD5=[3010ca13f0149bc0f454a43ba7187a6c]
link textEditor.list.numbers to textEditor.list.none--><path d="M407.79,169.6538 C365.55,178.9938 297.18,190.5938 238,184.5938 C207.27,181.4738 172.85,174.0538 148.43,168.1038 " fill="none" id="textEditor.list.numbers-to-textEditor.list.none" style="stroke: #A80036; stroke-width: 1.0;"/><polygon fill="#A80036" points="143.37,166.8538,151.1479,172.8956,148.2241,168.053,153.0667,165.1291,143.37,166.8538" style="stroke: #A80036; stroke-width: 1.0;"/><text fill="#000000" font-family="sans-serif" font-size="13" lengthAdjust="spacingAndGlyphs" textLength="38" x="252.5" y="180.6606">NONE</text></g></svg>