<?xml version="1.0" encoding="UTF-8" standalone="no"?><svg xmlns="http://www.w3.org/2000/svg" xmlns:xlink="http://www.w3.org/1999/xlink" contentScriptType="application/ecmascript" contentStyleType="text/css" height="125px" preserveAspectRatio="none" style="width:289px;height:125px;" version="1.1" viewBox="0 0 289 125" width="289px" zoomAndPan="magnify"><defs><filter height="300%" id="f148vany0lw65d" width="300%" x="-1" y="-1"><feGaussianBlur result="blurOut" stdDeviation="2.0"/><feColorMatrix in="blurOut" result="blurOut2" type="matrix" values="0 0 0 0 0 0 0 0 0 0 0 0 0 0 0 0 0 0 .4 0"/><feOffset dx="4.0" dy="4.0" in="blurOut2" result="blurOut3"/><feBlend in="SourceGraphic" in2="blurOut3" mode="normal"/></filter></defs><g><rect fill="#FEFECE" filter="url(#f148vany0lw65d)" height="106.2969" rx="12.5" ry="12.5" style="stroke: #A80036; stroke-width: 1.5;" width="270" x="7" y="7"/><rect fill="#FFFFFF" height="74" rx="12.5" ry="12.5" style="stroke: #FFFFFF; stroke-width: 1.0;" width="264" x="10" y="36.2969"/><line style="stroke: #A80036; stroke-width: 1.5;" x1="7" x2="277" y1="33.2969" y2="33.2969"/><text fill="#000000" font-family="sans-serif" font-size="14" lengthAdjust="spacingAndGlyphs" textLength="29" x="127.5" y="24.9951">light</text><ellipse cx="28" cy="70.2969" fill="#000000" filter="url(#f148vany0lw65d)" rx="10" ry="10" style="stroke: none; stroke-width: 1.0;"/><g id="light.light.green"><rect fill="#FEFECE" filter="url(#f148vany0lw65d)" height="50" rx="12.5" ry="12.5" style="stroke: #A80036; stroke-width: 1.5;" width="61" x="75" y="45.2969"/><line style="stroke: #A80036; stroke-width: 1.5;" x1="75" x2="136" y1="71.5938" y2="71.5938"/><text fill="#000000" font-family="sans-serif" font-size="14" lengthAdjust="spacingAndGlyphs" textLength="41" x="85" y="63.292">green</text></g><g id="light.green.light.red"><rect fill="#FEFECE" filter="url(#f148vany0lw65d)" height="50" rx="12.5" ry="12.5" style="stroke: #A80036; stroke-width: 1.5;" width="50" x="211" y="45.2969"/><line style="stroke: #A80036; stroke-width: 1.5;" x1="211" x2="261" y1="71.5938" y2="71.5938"/><text fill="#000000" font-family="sans-serif" font-size="14" lengthAdjust="spacingAndGlyphs" textLength="23" x="224.5" y="63.292">red</text></g><!--MD5=[0a8b17fd92ee7bb3453aa76957074bd5]
link *start*light to light.green--><path d="M38.26,70.2969 C46.18,70.2969 58.1,70.2969 69.66,70.2969 " fill="none" id="*start*light-to-light.green" style="stroke: #A80036; stroke-width: 1.0;"/><polygon fill="#A80036" points="74.93,70.2969,65.93,66.2969,69.93,70.2969,65.93,74.2969,74.93,70.2969" style="stroke: #A80036; stroke-width: 1.0;"/><!--MD5=[4fd0815a1c079d3d6a09ca86b891004b]
link light.green to light.red--><path d="M136.3,70.2969 C157.22,70.2969 185.05,70.2969 205.82,70.2969 " fill="none" id="light.green-to-light.red" style="stroke: #A80036; stroke-width: 1.0;"/><polygon fill="#A80036" points="210.94,70.2969,201.94,66.2969,205.94,70.2969,201.94,74.2969,210.94,70.2969" style="stroke: #A80036; stroke-width: 1.0;"/><text fill="#000000" font-family="sans-serif" font-size="13" lengthAdjust="spacingAndGlyphs" textLength="37" x="155" y="66.3638">TIMER</text><!--MD5=[936290f19a98592714438c11941443b4]
link light.red to light.green--><path d="M210.85,84.7369 C205.18,87.4469 199.03,89.8769 193,91.2969 C176.13,95.2769 170.96,94.8769 154,91.2969 C149.59,90.3669 145.1,88.9969 140.72,87.4069 " fill="none" id="light.red-to-light.green" style="stroke: #A80036; stroke-width: 1.0;"/><polygon fill="#A80036" points="136.02,85.5869,142.9614,92.5738,140.6808,87.397,145.8576,85.1165,136.02,85.5869" style="stroke: #A80036; stroke-width: 1.0;"/><text fill="#000000" font-family="sans-serif" font-size="13" lengthAdjust="spacingAndGlyphs" textLength="37" x="155" y="87.3638">TIMER</text></g></svg>