<?xml version="1.0" encoding="UTF-8" standalone="no"?><svg xmlns="http://www.w3.org/2000/svg" xmlns:xlink="http://www.w3.org/1999/xlink" contentScriptType="application/ecmascript" contentStyleType="text/css" height="515px" preserveAspectRatio="none" style="width:455px;height:515px;" version="1.1" viewBox="0 0 455 515" width="455px" zoomAndPan="magnify"><defs><filter height="300%" id="f1t00rqyvumfz9" width="300%" x="-1" y="-1"><feGaussianBlur result="blurOut" stdDeviation="2.0"/><feColorMatrix in="blurOut" result="blurOut2" type="matrix" values="0 0 0 0 0 0 0 0 0 0 0 0 0 0 0 0 0 0 .4 0"/><feOffset dx="4.0" dy="4.0" in="blurOut2" result="blurOut3"/><feBlend in="SourceGraphic" in2="blurOut3" mode="normal"/></filter></defs><g><!--MD5=[634f6b4eaf3da41b3cae61f22901d6a8]
cluster word--><rect fill="#FEFECE" filter="url(#f1t00rqyvumfz9)" height="496" rx="12.5" ry="12.5" style="stroke: #A80036; stroke-width: 1.5;" width="436.72" x="7" y="7"/><rect fill="#FFFFFF" height="463.7031" rx="12.5" ry="12.5" style="stroke: #FFFFFF; stroke-width: 1.0;" width="430.72" x="10" y="36.2969"/><line style="stroke: #A80036; stroke-width: 1.5;" x1="7" x2="443.72" y1="33.2969" y2="33.2969"/><text fill="#000000" font-family="sans-serif" font-size="14" lengthAdjust="spacingAndGlyphs" textLength="34" x="208.36" y="23.9951">word</text><!--MD5=[0a3fe35c0cac2909c60cc666f327669b]
cluster word.direction--><rect fill="#FEFECE" filter="url(#f1t00rqyvumfz9)" height="413" rx="12.5" ry="12.5" style="stroke: #A80036; stroke-width: 1.5;" width="372.72" x="39" y="58"/><rect fill="#FFFFFF" height="380.7031" rx="12.5" ry="12.5" style="stroke: #FFFFFF; stroke-width: 1.0;" width="366.72" x="42" y="87.2969"/><line style="stroke: #A80036; stroke-width: 1.5;" x1="39" x2="411.72" y1="84.2969" y2="84.2969"/><text fill="#000000" font-family="sans-serif" font-size="14" lengthAdjust="spacingAndGlyphs" textLength="60" x="195.36" y="74.9951">direction</text><ellipse cx="239.72" cy="111" fill="#000000" filter="url(#f1t00rqyvumfz9)" rx="10" ry="10" style="stroke: none; stroke-width: 1.0;"/><g id="word.direction.word.direction.left"><rect fill="#FEFECE" filter="url(#f1t00rqyvumfz9)" height="50" rx="12.5" ry="12.5" style="stroke: #A80036; stroke-width: 1.5;" width="50" x="337.72" y="214"/><line style="stroke: #A80036; stroke-width: 1.5;" x1="337.72" x2="387.72" y1="240.2969" y2="240.2969"/><text fill="#000000" font-family="sans-serif" font-size="14" lengthAdjust="spacingAndGlyphs" textLength="21" x="352.22" y="231.9951">left</text></g><g id="word.direction.word.direction.right"><rect fill="#FEFECE" filter="url(#f1t00rqyvumfz9)" height="50" rx="12.5" ry="12.5" style="stroke: #A80036; stroke-width: 1.5;" width="51" x="214.22" y="326"/><line style="stroke: #A80036; stroke-width: 1.5;" x1="214.22" x2="265.22" y1="352.2969" y2="352.2969"/><text fill="#000000" font-family="sans-serif" font-size="14" lengthAdjust="spacingAndGlyphs" textLength="31" x="224.22" y="343.9951">right</text></g><g id="word.direction.word.direction.center"><rect fill="#FEFECE" filter="url(#f1t00rqyvumfz9)" height="50" rx="12.5" ry="12.5" style="stroke: #A80036; stroke-width: 1.5;" width="65" x="207.22" y="241"/><line style="stroke: #A80036; stroke-width: 1.5;" x1="207.22" x2="272.22" y1="267.2969" y2="267.2969"/><text fill="#000000" font-family="sans-serif" font-size="14" lengthAdjust="spacingAndGlyphs" textLength="45" x="217.22" y="258.9951">center</text></g><g id="word.direction.word.direction.justify"><rect fill="#FEFECE" filter="url(#f1t00rqyvumfz9)" height="50" rx="12.5" ry="12.5" style="stroke: #A80036; stroke-width: 1.5;" width="59" x="210.22" y="156"/><line style="stroke: #A80036; stroke-width: 1.5;" x1="210.22" x2="269.22" y1="182.2969" y2="182.2969"/><text fill="#000000" font-family="sans-serif" font-size="14" lengthAdjust="spacingAndGlyphs" textLength="39" x="220.22" y="173.9951">justify</text></g><!--MD5=[a102ec72faf6c58363b2ddec3adf787e]
link *start*word.direction to word.direction.left--><path d="M248.56,116.11 C256.14,121.22 267.75,129.52 276.72,138 C300.3,160.29 323.79,188.81 340.08,209.86 " fill="none" id="*start*word.direction-to-word.direction.left" style="stroke: #A80036; stroke-width: 1.0;"/><polygon fill="#A80036" points="343.24,213.96,340.9031,204.3924,340.1832,210.0033,334.5723,209.2833,343.24,213.96" style="stroke: #A80036; stroke-width: 1.0;"/><!--MD5=[d3be582cc3d2a23d0ae3373d6a8fbc42]
link word.direction to word.direction.left--><path d="M47.75,309.1 C48.38,311.08 58.69,343.07 77.72,360 C145.86,420.61 199.2,458.03 276.72,410 C326.48,379.17 348.04,309.52 356.62,269.26 " fill="none" id="word.direction-to-word.direction.left" style="stroke: #A80036; stroke-width: 1.0;"/><polygon fill="#A80036" points="357.7,264.03,351.9541,272.029,356.6837,268.9256,359.7871,273.6552,357.7,264.03" style="stroke: #A80036; stroke-width: 1.0;"/><text fill="#000000" font-family="sans-serif" font-size="13" lengthAdjust="spacingAndGlyphs" textLength="72" x="203.72" y="406.0669">LEFT_CLICK</text><!--MD5=[92c7f1f7d533d68940cbf15fd3a99e6e]
link word.direction to word.direction.right--><path d="M47.76,309.05 C48.61,310.08 62.44,326.66 77.72,333 C120.75,350.84 175.5,353.13 208.79,352.52 " fill="none" id="word.direction-to-word.direction.right" style="stroke: #A80036; stroke-width: 1.0;"/><polygon fill="#A80036" points="213.94,352.4,204.8509,348.6067,208.9413,352.5143,205.0338,356.6046,213.94,352.4" style="stroke: #A80036; stroke-width: 1.0;"/><text fill="#000000" font-family="sans-serif" font-size="13" lengthAdjust="spacingAndGlyphs" textLength="81" x="84.72" y="329.0669">RIGHT_CLICK</text><!--MD5=[1649d200707f750858493d8b04483f10]
link word.direction to word.direction.center--><path d="M47.86,308.97 C51.98,308.04 147.34,286.57 201.67,274.34 " fill="none" id="word.direction-to-word.direction.center" style="stroke: #A80036; stroke-width: 1.0;"/><polygon fill="#A80036" points="206.8,273.19,197.1454,271.2436,201.9197,274.2777,198.8857,279.052,206.8,273.19" style="stroke: #A80036; stroke-width: 1.0;"/><text fill="#000000" font-family="sans-serif" font-size="13" lengthAdjust="spacingAndGlyphs" textLength="93" x="78.72" y="278.0669">CENTER_CLICK</text><!--MD5=[eb93b9984f80f27c91011840902b664f]
link word.direction to word.direction.justify--><path d="M47.75,308.9 C48.38,306.9 58.71,274.51 77.72,257 C114.78,222.87 169.91,201.39 205.08,190.29 " fill="none" id="word.direction-to-word.direction.justify" style="stroke: #A80036; stroke-width: 1.0;"/><polygon fill="#A80036" points="210.12,188.73,200.3377,187.5865,205.3461,190.2165,202.7161,195.2248,210.12,188.73" style="stroke: #A80036; stroke-width: 1.0;"/><text fill="#000000" font-family="sans-serif" font-size="13" lengthAdjust="spacingAndGlyphs" textLength="89" x="80.72" y="198.0669">JUSTIFY_CLICK</text></g></svg>